<?xml version="1.0" standalone="no"?>
<!DOCTYPE svg PUBLIC "-//W3C//DTD SVG 1.1//EN" "http://www.w3.org/Graphics/SVG/1.1/DTD/svg11.dtd" >
<svg xmlns="http://www.w3.org/2000/svg">
<metadata>
Created by FontForge 20120731 at Tue Jun  6 00:23:21 2017
 By admin
</metadata>
<defs>
<font id="iconfont" horiz-adv-x="1024" >
  <font-face 
    font-family="iconfont"
    font-weight="500"
    font-stretch="normal"
    units-per-em="1024"
    panose-1="2 0 6 3 0 0 0 0 0 0"
    ascent="896"
    descent="-128"
    x-height="792"
    bbox="-0.090909 -178 1449.39 945.491"
    underline-thickness="0"
    underline-position="0"
    unicode-range="U+0078-E939"
  />
<missing-glyph 
 />
    <glyph glyph-name=".notdef" 
 />
    <glyph glyph-name=".notdef" 
 />
    <glyph glyph-name=".null" horiz-adv-x="0" 
 />
    <glyph glyph-name="nonmarkingreturn" horiz-adv-x="341" 
 />
    <glyph glyph-name="x" unicode="x" horiz-adv-x="1001" 
d="M281 543q-27 -1 -53 -1h-83q-18 0 -36.5 -6t-32.5 -18.5t-23 -32t-9 -45.5v-76h912v41q0 16 -0.5 30t-0.5 18q0 13 -5 29t-17 29.5t-31.5 22.5t-49.5 9h-133v-97h-438v97zM955 310v-52q0 -23 0.5 -52t0.5 -58t-10.5 -47.5t-26 -30t-33 -16t-31.5 -4.5q-14 -1 -29.5 -0.5
t-29.5 0.5h-32l-45 128h-439l-44 -128h-29h-34q-20 0 -45 1q-25 0 -41 9.5t-25.5 23t-13.5 29.5t-4 30v167h911zM163 247q-12 0 -21 -8.5t-9 -21.5t9 -21.5t21 -8.5q13 0 22 8.5t9 21.5t-9 21.5t-22 8.5zM316 123q-8 -26 -14 -48q-5 -19 -10.5 -37t-7.5 -25t-3 -15t1 -14.5
t9.5 -10.5t21.5 -4h37h67h81h80h64h36q23 0 34 12t2 38q-5 13 -9.5 30.5t-9.5 34.5q-5 19 -11 39h-368zM336 498v228q0 11 2.5 23t10 21.5t20.5 15.5t34 6h188q31 0 51.5 -14.5t20.5 -52.5v-227h-327z" />
    <glyph glyph-name="guanbi" unicode="&#xe61e;" horiz-adv-x="1000" 
d="M525 443v0l-266 267l-133 -133l266 -267v0l133 -133v0l267 -267l133 134l-333 333zM126 44l133 -134l266 267l-133 133zM659 310l266 267l-133 133l-267 -267l67 -66z" />
    <glyph glyph-name="bofang" unicode="&#xe6bb;" 
d="M512 -82q-95 0 -181 37t-148.5 99.5t-99.5 148.5t-37 181t37 181t99.5 148.5t148.5 99.5t181 37t181 -37t148.5 -99.5t99.5 -148.5t37 -181t-37 -181t-99.5 -148.5t-148.5 -99.5t-181 -37zM512 743q-98 0 -180.5 -48t-130.5 -130.5t-48 -180.5t48 -180.5t130.5 -130.5
t180.5 -48t180.5 48t130.5 130.5t48 180.5t-48 180.5t-130.5 130.5t-180.5 48zM380 234q0 -9 7.5 -14t15.5 -1l301 151q8 4 8 14t-8 14l-301 151q-8 4 -15.5 -1t-7.5 -14v-300v0z" />
    <glyph glyph-name="jiaoyu" unicode="&#xe619;" 
d="M678.5 729q-13.5 0 -23 -9.5t-9.5 -22.5v-789q0 -14 9.5 -23t23 -9t22.5 9t9 23v789q0 13 -9 22.5t-22.5 9.5zM765.5 711q-5.5 0 -10 -4.5t-4.5 -9.5v-789q0 -6 4.5 -10t10 -4t10 4t4.5 10v789q0 5 -4.5 9.5t-10 4.5zM840.5 711q-5.5 0 -10 -4.5t-4.5 -9.5v-789
q0 -6 4 -10t10 -4t10 4t4 10v789q0 5 -4 9.5t-9.5 4.5zM925.5 729q-13.5 0 -23 -9.5t-9.5 -22.5v-789q0 -14 9.5 -23t23 -9t23 9t9.5 23v789q0 13 -9.5 22.5t-23 9.5zM529 728h-120q-23 0 -40 -16.5t-17 -40.5v-736q0 -23 16.5 -40t40.5 -17h120q23 0 40 17t17 40v736
q0 23 -16.5 40t-40.5 17zM518 453h-97q-9 0 -14.5 6t-5.5 14t5.5 14t14.5 6h97q8 0 14 -6t6 -14t-6 -14t-14 -6zM518 539h-97q-9 0 -14.5 5.5t-5.5 14t5.5 14.5t14.5 6h97q8 0 14 -6t6 -14.5t-6 -14t-14 -5.5zM239 728h-120q-24 0 -40.5 -16.5t-16.5 -40.5l-1 -736
q0 -23 17 -40t41 -17h119q24 0 41 17t17 40v736q0 23 -17 40t-40 17zM227 453h-97q-8 0 -14 6t-6 14t6 14t14 6h97q9 0 14.5 -6t5.5 -14t-5.5 -14t-14.5 -6zM227 539h-97q-8 0 -14 5.5t-6 14t6 14.5t14 6h97q9 0 14.5 -6t5.5 -14.5t-5.5 -14t-14.5 -5.5z" />
    <glyph glyph-name="jingmao" unicode="&#xe600;" 
d="M513 614q42 0 72 -37t30 -89.5t-30 -90t-72.5 -37.5t-72.5 37.5t-30 90t30 89.5t73 37v0zM894 372q17 19 34 40t35.5 56.5t15.5 60.5q-4 31 -71.5 78t-176.5 92t-218 67q-80 -14 -165.5 -44.5t-149 -65t-106 -69.5t-45.5 -58q-3 -25 15.5 -60.5t35 -56.5t33.5 -40l5 -124
q393 47 753 1zM888 222q1 -5 2 -13t-2.5 -32.5t-13.5 -46t-36 -48.5t-65 -46t-106.5 -32.5t-153.5 -13.5q-68 0 -124.5 8t-94 21.5t-67 31t-46 36.5t-27 38t-14 37t-4.5 31t0 21l1 8q392 48 751 0z" />
    <glyph glyph-name="rexian" unicode="&#xe634;" horiz-adv-x="1143" 
d="M719 499q90 -40 140 -114q3 -5 8 -14t17.5 -36t22 -54t17.5 -63.5t8 -68.5v-116q0 -19 -7.5 -33.5t-18.5 -21t-21.5 -10.5t-18.5 -5l-7 -1h-598q-62 0 -70 56q-3 15 -1 15v122q0 38 18 96t37 96l18 39q37 73 142 111v37q0 2 0.5 6.5t3.5 16t9.5 20t21 15.5t34.5 7h177
q3 0 7.5 -0.5t16 -4t20 -10t16 -21.5t7.5 -35zM1023 606q-3 18 -14 39.5t-43 51t-78.5 52.5t-129 40t-186.5 17q-108 0 -194 -16.5t-136 -41t-83.5 -54.5t-46 -53t-13.5 -41l-9 -78v0q0 -13 9.5 -21.5t21.5 -8.5v0l219 2q13 0 21.5 9t8.5 21l-11 78q2 22 28.5 31.5
t91.5 16.5l186 2q42 -4 66 -14t26 -34l-5 -77v0q0 -13 9 -21.5t22 -8.5v0l219 2q12 0 21 9t9 21z" />
    <glyph glyph-name="peixun" unicode="&#xe602;" 
d="M303 567q11 -33 32 -45.5t42.5 0t32.5 45.5q14 7 16 24q3 24 -10 24q-1 25 -16 41.5t-43 16.5t-43.5 -15.5t-17.5 -42.5q-12 0 -9 -24q2 -17 16 -24zM446 178v24q20 0 33.5 13.5t13.5 33.5v1l183 183q9 9 0 18t-18 0l-165 -165v156q0 25 -16.5 44.5t-42.5 25.5l-25 5
l-53 -105l-52 105l-25 -5q-26 -6 -42.5 -25.5t-16.5 -44.5v-193q0 -20 13.5 -33.5t32.5 -13.5v-24h180zM71 341q0 -54 38 -92.5t92 -38.5h2q-11 18 -11 39v18q-28 3 -47 24t-19 50v354q0 31 22 53t53 22h623q31 0 53 -22t22 -53v-354q0 -31 -22 -53t-53 -22h-276l-28 -28
q-2 -14 -11 -28h315q54 0 92 38.5t38 92.5v354q0 54 -38 92.5t-92 38.5h-623q-54 0 -92 -38.5t-38 -92.5v-354v0zM253 133h-97q-35 0 -60 -25t-25 -61v-113h268v113q0 36 -25 61t-61 25zM563 133h-98q-35 0 -60 -25t-25 -61v-113h268v113q0 36 -25 61t-60 25zM872 133h-97
q-36 0 -61 -25t-25 -61v-113h268v113q0 36 -25 61t-60 25z" />
    <glyph glyph-name="xiangmushouli" unicode="&#xe63b;" horiz-adv-x="1058" 
d="M708.5 -96q-130.5 0 -222.5 92t-92 222.5t92 223t222.5 92.5t222.5 -92.5t92 -223t-92 -222.5t-222.5 -92zM708.5 471q-104.5 0 -178 -74t-73.5 -178.5t73.5 -178t178 -73.5t178.5 73.5t74 178t-74 178.5t-178.5 74zM877 187h-121q-20 -27 -53 -27q-27 0 -46 19t-19 46
q0 19 11 35.5t28 23.5v117q0 9 9.5 15.5t22.5 6.5t22 -6.5t9 -15.5v-123q14 -11 22 -28h115q8 0 14.5 -9t6.5 -22t-6.5 -22.5t-14.5 -9.5zM795 728q0 18 -12.5 31t-30.5 13h-17q-5 -2 -11 -2q-13 0 -22 9t-9 22t9 22.5t22 9.5q6 0 11 -2h33q36 0 61 -25.5t25 -61.5v-177
q-27 12 -59 19v142zM614 738q-13 0 -22 9.5t-9 22.5v63q0 13 9 22t22 9t22.5 -9t9.5 -22v-63q0 -13 -9.5 -22.5t-22.5 -9.5zM441 738q-13 0 -22 9.5t-9 22.5v63q0 13 9 22t22 9t22.5 -9t9.5 -22v-63q0 -13 -9.5 -22.5t-22.5 -9.5zM119 8q-36 0 -61.5 25.5t-25.5 61.5v649
q0 36 25.5 61.5t61.5 25.5h28q6 2 11 2q13 0 22 -9.5t9 -22.5t-9 -22t-22 -9q-5 0 -11 2h-13q-18 0 -30.5 -13t-12.5 -31v-617q0 -18 12.5 -31t30.5 -13h229q14 -31 32 -59h-276v0zM268 738q-13 0 -22 9.5t-9 22.5v63q0 13 9 22t22 9t22.5 -9t9.5 -22v-63q0 -13 -9.5 -22.5
t-22.5 -9.5z" />
    <glyph glyph-name="yaoqing" unicode="&#xe633;" 
d="M583 427q0 -70 -35 -131q-10 -15 -21 -29q42 -30 72 -70q32 -42 50 -94q17 -44 21 -86v-7h280h10q8 1 15.5 7t10.5 11t3 6q-4 47 -23 96v0q-9 26 -23 52.5t-23 39.5l-10 13q-20 27 -45.5 50t-46.5 36t-39.5 22t-28.5 12l-11 4v0q61 35 97.5 97t36.5 135q0 111 -79 190
t-190 79q-85 0 -154 -48.5t-98 -126.5q98 -10 164.5 -84t66.5 -174zM34 10h577v1q-1 16 -5.5 34t-7.5 28l-4 10q-15 45 -42 78v0q-24 33 -56 56t-51 30l-20 7v0q45 26 72 72.5t27 100.5q0 84 -58.5 142.5t-142 58.5t-142 -58.5t-58.5 -142.5q0 -53 25.5 -98t68.5 -72v0
q-26 -8 -50.5 -22.5t-35.5 -25.5l-12 -10q-43 -40 -61 -83v0q-12 -25 -18 -52t-6 -40v-14v0v0z" />
    <glyph glyph-name="iconfonthongshizi" unicode="&#xe601;" 
d="M425 532h168v-485h-168v485zM266 374h485v-169h-485v169zM648 737q43 -56 51 -87q-5 -6 -56 34q-3 1 -8.5 4t-21.5 8t-31 7.5t-36 -0.5t-38 -13q9 -6 24.5 -14.5t54.5 -20.5t67 -6q10 3 42 -15l11 -13q-7 2 -18.5 3t-42.5 -3t-57 -18q3 -8 34 -18q69 -16 123 0
q30 -21 52 -52q-36 22 -109 22q3 -2 8 -7t21 -18t32.5 -22.5t38.5 -18t42 -8.5q8 2 20 -18q2 -4 5.5 -11.5t9.5 -21t5 -18.5q-7 7 -18.5 17t-38.5 22.5t-43 4.5l5.5 -11t15 -25t23.5 -32t30 -27t35 -16q5 -7 8 -52v-25l-2.5 7.5t-7 16.5t-13.5 22t-23 21.5t-33 17.5
q0 -2 -0.5 -6.5t0.5 -17.5t4 -26.5t11.5 -33t21.5 -37.5q20 -26 29 -36q-17 -51 -22 -52q-13 71 -37 85q-1 -3 -3.5 -9t-6.5 -23.5t-4.5 -33t4.5 -34.5t18 -33q-17 -40 -42 -63q2 66 -6 107q-2 0 -5.5 -1.5t-12.5 -9.5t-15.5 -21t-12.5 -40.5t-7 -63.5q-24 -26 -33 -26
q17 58 20 103q-3 -1 -8 -3.5t-19 -13t-25 -23.5t-22.5 -37t-15.5 -53q-31 -13 -53 -13q37 34 53 74l4 13q-3 -1 -7.5 -1.5t-17.5 -6t-25.5 -13t-28.5 -23t-28 -35.5l-9 -5v-39l11 -1q2 -4 6 -10t17.5 -19t29.5 -20.5t42 -7.5t54 13q0 1 -1 3t-8 8t-18 12t-33.5 15.5
t-51.5 18.5q59 9 68 15q3 -3 9.5 -8.5t27.5 -15.5t43 -12t54.5 9t65.5 39q-11 1 -27.5 3.5t-53.5 6t-56 2.5q32 14 49 30q5 -1 12 -3t28 -2.5t40 3.5t42.5 19t39.5 40l18 35q-54 -8 -93 -27q21 26 21 37q1 1 8 -0.5t21.5 3t28.5 11t30 24t26 41.5q2 5 5 13t7 28.5t2 35.5
q-56 -41 -79 -70l13 36q2 2 6 5.5t14 16.5t18.5 27t16 36.5t9.5 46.5q5 41 -1 64q-3 0 -8 -1.5t-21.5 -18.5t-32.5 -48q0 15 -3 38q4 5 10.5 13.5t14.5 35t3 55.5q-7 33 -32 69q-16 -47 -20 -94q-8 23 -24 45l2.5 7.5t3.5 19.5t0.5 30.5t-10 37t-24.5 41.5q-32 30 -38 30
q-11 -46 4 -78l5 -13q-20 18 -32 28q1 -1 1.5 10t-4 27.5t-15 34.5t-37 36t-64.5 29zM370 736q-44 -56 -51 -87q5 -6 56 33q3 2 8.5 5t22.5 8.5t33.5 7.5t38 -0.5t38.5 -12.5q-10 -6 -26.5 -15t-57 -21t-69.5 -6q-10 3 -42 -15l-11 -13q7 2 18.5 3t43 -3.5t56.5 -18.5
q-2 -8 -34 -17q-69 -16 -123 0q-29 -21 -52 -52q36 22 110 22q-3 -3 -8.5 -8t-21.5 -17.5t-32 -22t-38.5 -18t-42.5 -8.5q-8 2 -20 -18q-2 -4 -5.5 -11.5t-9 -21.5t-5.5 -18q7 7 18.5 16.5t38.5 22.5t44 5l-5.5 -11t-15 -25t-23.5 -32t-30 -27.5t-36 -15.5q-5 -7 -8 -53
l1 -24q0 3 1.5 7t7.5 16t13.5 22.5t22.5 21.5t33 18q0 -3 0.5 -7t-0.5 -17t-4 -26.5t-11.5 -33t-21.5 -37.5q-20 -26 -28 -37q16 -50 21 -51q13 71 37 85q2 -4 4 -10t6 -23t4.5 -32.5t-4.5 -35t-18 -32.5q18 -41 42 -64q-2 67 7 108q2 0 5 -1.5t12 -9.5t15.5 -21t13 -40.5
t6.5 -63.5q25 -26 33 -26q-16 58 -20 103q3 -1 8.5 -3.5t19 -13t25 -24t22.5 -37.5t16 -52q31 -14 52 -14q-36 35 -53 75l-4 12q3 0 7.5 -1t18 -6t26 -12.5t28 -23t27.5 -36.5l9 -5v-39h-11q-2 -4 -5.5 -10t-17.5 -19t-30 -21t-42 -7.5t-54 13.5q0 1 1.5 3t8.5 8t17.5 12
t33 15.5t52.5 18.5q-60 8 -69 15q-3 -3 -9.5 -8.5t-27.5 -15.5t-42.5 -12.5t-54.5 8.5t-65 39q10 2 27 4t53.5 5.5t55.5 3.5q-32 14 -49 30q-4 -2 -11.5 -3.5t-28.5 -2t-40 3.5t-42 18.5t-40 39.5l-17 36q53 -8 92 -28q-21 27 -21 38q-1 1 -8 -0.5t-21 3t-28.5 11t-30 23.5
t-26.5 42q-2 5 -4.5 13t-7 28.5t-2.5 35.5q56 -41 80 -71l-13 37q-3 2 -6.5 5.5t-14 16t-18.5 27t-15.5 37t-9.5 46.5q-5 41 0 63q3 1 8.5 -1t21.5 -18.5t32 -47.5q0 15 4 38q-5 5 -11 13t-14.5 35t-2.5 55q6 34 31 69q16 -46 21 -93q7 23 23 45q-1 2 -2.5 7t-3.5 20
t-0.5 30.5t10 37t24.5 41.5q32 30 38 30q11 -46 -3 -78l-6 -13q20 17 32 27q0 28 1 34q16 76 119 104z" />
    <glyph glyph-name="hehuashenghuanjinggoushe" unicode="&#xe749;" 
d="M408 350.5q0 42.5 30 72.5t72.5 30t73 -30t30.5 -72.5t-30.5 -73t-73 -30.5t-72.5 30.5t-30 73zM408 350.5q0 42.5 30 72.5t72.5 30t73 -30t30.5 -72.5t-30.5 -73t-73 -30.5t-72.5 30.5t-30 73zM990 350h-342q0 -38 -19 -69.5t-51 -49.5l167 -292q112 64 178.5 172.5
t66.5 238.5zM511 487q37 0 69 -19l172 297q-112 65 -241 65q-130 0 -242 -66l171 -297q32 20 71 20zM374 350h-343q0 -130 67 -238.5t178 -172.5l168 292q-32 18 -51 49.5t-19 69.5z" />
    <glyph glyph-name="banjichengyuan" unicode="&#xe62c;" 
d="M867 237q26 16 41 42t15 56q0 47 -33 80t-80 33t-80.5 -33t-33.5 -80q0 -24 9 -45q92 -76 108 -194h172q-7 50 -39 88t-79 53zM322 299q6 17 6 36q0 47 -33 80t-81 33q-47 0 -80 -33t-33 -80q0 -31 15 -57t41 -41q-47 -15 -79 -53.5t-39 -87.5h165q8 61 38.5 114t79.5 89
zM600 327q42 25 67.5 67t25.5 93q0 77 -54 131t-132 54q-77 0 -131 -54t-54 -131q0 -51 25 -93.5t67 -66.5q-76 -25 -128 -87.5t-63 -143.5h571q-11 81 -63.5 143t-130.5 88z" />
    <glyph glyph-name="iconketing" unicode="&#xe60d;" 
d="M811 32q-15 0 -26 11t-11 26v38h37q27 0 45.5 5t24.5 10l5 5v-58q0 -15 -11 -26t-26 -11h-38zM175 32q-15 0 -26 11t-11 26v58q1 -2 5.5 -5.5t23.5 -9t46 -5.5h37v-38q0 -15 -11 -26t-26 -11h-38zM992 425q0 36 -25.5 61t-61.5 25q-27 0 -49 -15.5t-32 -40.5l-41 -92
q-4 3 -38 12t-100.5 19t-130 10t-131.5 -10t-103 -19.5t-39 -11.5l-39 86q-8 28 -31 45t-52 17q-36 0 -61.5 -25t-25.5 -61q0 -30 18 -52.5t46 -30.5l16 -138q5 -16 17.5 -28.5t25 -18t27.5 -9t21.5 -4t9.5 -0.5h598q4 0 9.5 0.5t21 4t28 9t25 18t17.5 28.5l16 138
q28 8 46 30.5t18 52.5v0zM119 556q-2 0 -6.5 -0.5t-5.5 -0.5v0.5v0.5q0 75 53 127.5t127 52.5h450q74 0 127 -52.5t53 -127.5v-0.5v-0.5q-1 0 -5.5 0.5t-6.5 0.5q-40 0 -74 -23t-48 -61l-22 -48q-26 10 -105 17.5t-142 7.5t-143.5 -8t-107.5 -18l-19 42q-13 41 -48 66
t-77 25z" />
    <glyph glyph-name="huodong" unicode="&#xe625;" 
d="M981 208h-469v118h-293v468h410v-117h352l-117 -234zM102 -85q-24 0 -41.5 17.5t-17.5 41.5v820q0 24 17.5 41.5t41.5 17.5t41.5 -17.5t17.5 -41.5v-820q-1 -24 -18 -41.5t-41 -17.5z" />
    <glyph glyph-name="xinzeng" unicode="&#xe653;" 
d="M565 145h-106v186h-186v106h186v186h106v-186h186v-106h-186v-186zM36 384q0 -97 37.5 -185t101.5 -152t152 -101.5t185 -37.5t185 37.5t152 101.5t101.5 152t37.5 185t-37.5 185t-101.5 152t-152 101.5t-185 37.5t-185 -37.5t-152 -101.5t-101.5 -152t-37.5 -185z" />
    <glyph glyph-name="tongzhitonggao" unicode="&#xe603;" 
d="M550 794q-24 12 -44 -5l-238 -199l-190 1q-17 0 -29.5 -12t-12.5 -29v-332q0 -17 12 -29t29 -12h192l237 -198q12 -9 27 -9q9 0 17 4q24 11 24 37v746q0 26 -24 37v0zM711 587q-15 7 -31 1.5t-23.5 -21t-2 -31.5t20.5 -24q4 -1 8.5 -4t15.5 -14t19 -23.5t15 -35t7 -48.5
q0 -27 -6.5 -51t-14 -37.5t-18 -24.5t-14.5 -14t-7 -5q-15 -7 -20.5 -23.5t1.5 -31.5q12 -23 38 -23q9 0 18 4q5 3 13 8t26 22.5t31.5 38.5t24.5 58t11 79q0 41 -12 76.5t-26 56.5t-33 38t-27 22t-14 7v0zM840 709q-14 9 -31 5.5t-26 -18t-5.5 -31t17.5 -26.5q5 -3 13.5 -10
t27 -29t33 -49t26 -72t11.5 -95.5t-11 -95t-25 -71.5t-31.5 -49.5t-25.5 -29t-13 -10.5q-15 -9 -18 -26t6 -31q13 -18 35 -18q12 0 23 7q7 4 17.5 13t34.5 37.5t42.5 62.5t33 90.5t14.5 120.5t-15 120.5t-34.5 91t-44.5 63t-36 37t-18 13.5v0z" />
    <glyph glyph-name="zixun" unicode="&#xe683;" 
d="M942 840h-862q-20 0 -34 -14t-14 -34v-628q0 -20 14 -34t34 -14h240l-72 -186l287 186h407q20 0 34 14t14 34v628q0 20 -14 34t-34 14zM511 558q25 0 42.5 -17.5t17.5 -42.5t-17.5 -42.5t-42.5 -17.5t-42.5 17.5t-17.5 42.5t17.5 42.5t42.5 17.5zM232 498q0 25 17.5 42.5
t42 17.5t42 -17.5t17.5 -42.5t-17.5 -42.5t-42 -17.5t-42 17.5t-17.5 42.5zM731 438q-25 0 -42.5 17.5t-17.5 42.5t17.5 42.5t42.5 17.5t42.5 -17.5t17.5 -42.5t-17.5 -42.5t-42.5 -17.5z" />
    <glyph glyph-name="fanhui" unicode="&#xe699;" 
d="M511.5 860q-96.5 0 -184.5 -38t-152 -101.5t-101.5 -151.5t-37.5 -185t37.5 -185t101.5 -151.5t152 -101t184.5 -37.5t184.5 37.5t152 101t101.5 151.5t37.5 185t-37.5 185t-101.5 151.5t-152 101.5t-184.5 38zM511 -23q-111 0 -205 54.5t-149 148.5t-55 205t55 205
t149 149t205 55t205 -55t148.5 -149t54.5 -205t-54.5 -205t-148.5 -148.5t-205 -54.5zM502 175q6 -7 6 -16t-6 -16v0q-7 -6 -16 -6t-16 6l-225 225q-6 7 -6 16t6 16v0q7 6 16 6t16 -6zM277 369q-7 -7 -16 -7t-16 7v0q-6 6 -6 15t6 16l225 225q7 7 16 7t16 -7v0q6 -6 6 -15.5
t-6 -15.5zM752 414q13 0 21.5 -8.5t8.5 -21.5v0q0 -12 -8.5 -21t-21.5 -9h-432q-12 0 -21 8.5t-9 21.5v0q0 12 9 21t21 9h432z" />
    <glyph glyph-name="yingjiemergency7" unicode="&#xe65d;" horiz-adv-x="1025" 
d="M707 511q-2 1 -5.5 4t-18 10t-33.5 12t-53.5 9.5t-76 4.5t-76 -4t-54 -10t-33.5 -12t-19 -10l-4 -4v-295q-26 -6 -46 -13q-12 -4 -19.5 -14.5t-7.5 -23.5v-166q0 -14 9 -25.5t23 -14.5q111 -24 227.5 -24t226.5 24q14 3 23 14.5t9 25.5v165q0 13 -7 23.5t-19 14.5
q-20 8 -46 14v295v0zM405 489q12 0 20.5 -8.5t8.5 -20.5t-8.5 -20.5t-20.5 -8.5t-20.5 8.5t-8.5 20.5t8.5 20.5t20.5 8.5zM374 386q0 14 9 23.5t22.5 9.5t23 -9.5t9.5 -23.5v-172q0 -14 -9.5 -23.5t-23 -9.5t-22.5 9.5t-9 23.5v172zM520 596q14 0 24 10t10 24v166
q0 13 -10 23t-24 10t-24 -10t-10 -23v-166q0 -14 10 -24t24 -10zM381 618q5 -5 12 -5t11.5 5t4.5 12t-4 11l-118 118q-5 5 -12 5t-11.5 -5t-4.5 -12t5 -12zM647.5 613q6.5 0 11.5 5l118 117q5 5 5 12t-5 12t-12 5t-12 -5l-117 -118q-5 -4 -5 -11t5 -12t11.5 -5zM962 575.5
q-2 13.5 -13.5 21.5t-24.5 6l-164 -27q-14 -2 -22 -13.5t-6 -24.5q2 -12 11.5 -20t21.5 -8q3 0 5 1l164 26q14 3 22 14t6 24.5zM275 510q12 0 21.5 8t11.5 20q2 13 -6 24.5t-21 13.5l-164 27q-14 2 -25 -6t-13.5 -21.5t5.5 -24.5t22 -14l164 -26q3 -1 5 -1z" />
    <glyph glyph-name="02" unicode="&#xe604;" 
d="M416 848h-288q-26 0 -45 -19t-19 -45v-288q0 -27 19 -45.5t45 -18.5h288q27 0 45.5 18.5t18.5 45.5v288q0 26 -18.5 45t-45.5 19zM896 848h-288q-27 0 -45.5 -19t-18.5 -45v-288q0 -27 18.5 -45.5t45.5 -18.5h288q26 0 45 18.5t19 45.5v288q0 26 -19 45t-45 19zM416 368
h-288q-26 0 -45 -18.5t-19 -45.5v-320q0 -26 19 -45t45 -19h288q27 0 45.5 19t18.5 45v320q0 27 -18.5 45.5t-45.5 18.5zM896 368h-288q-27 0 -45.5 -18.5t-18.5 -45.5v-320q0 -26 18.5 -45t45.5 -19h288q26 0 45 19t19 45v320q0 27 -19 45.5t-45 18.5z" />
    <glyph glyph-name="yundongqipai" unicode="&#xe663;" 
d="M397 738q0 -43 30.5 -73.5t73 -30.5t73 30.5t30.5 73.5v0q0 43 -30.5 73t-73 30t-73 -30t-30.5 -73v0zM908 -27l-170 258q-3 4 -12 4h-35q1 7 1.5 14.5t-1 19t-2.5 20t-5 27t-6 30t-8 37.5q-25 117 -38 194q-3 14 -14 21.5t-24 5.5q-5 -1 -9 -3q-14 13 -31 13
q-54 -28 -107 0q-16 0 -29 -11q-1 0 -2 0.5l-1 0.5q-13 5 -25 -0.5t-17 -18.5l-6 -14q-41 -105 -57.5 -156t-14.5 -77q1 -9 6 -16q31 -44 56 -87h-82q-9 0 -12 -4l-170 -258q-4 -6 -1.5 -10t8.5 -4h801q6 0 8.5 4t-1.5 10v0zM623 285q5 -27 4 -35q-2 -3 -3 -7l-21 64
q-3 8 -9 15l3 89q2 -8 5 -22t4 -20q14 -62 17 -84zM379 417q8 22 22 60l6 -156q-6 -6 -9 -14l-3 -9q-15 26 -34 53q2 19 18 66zM145 -8l138 210h91q18 -36 18 -47q0 -13 9.5 -22.5t22.5 -9.5h2q13 1 22.5 11t8.5 23q-1 18 -11 45h272l138 -210h-711zM463 102q0 7 -10.5 12
t-25 5t-24.5 -5t-10 -12v-1v-8v-0.5v-0.5v-1v-1q5 -15 35 -15t34 15q1 0 1 1v1v1v8v0.5v0.5zM536 28q0 7 -10.5 12t-25 5t-24.5 -5t-10 -12v-1v-8v-0.5v-0.5v-1v-1q5 -15 35 -15t34 15q1 0 1 1v0.5v0.5v1v8v0.5v0.5zM536 176q0 6 -10.5 11t-25 5t-24.5 -5t-10 -11v-1v-8v-1
v0v-1v-2q5 -14 35 -14t34 14q1 1 1 2v0.5v0.5v1v8v0v1zM620 176q0 6 -10.5 11t-25 5t-24.5 -5t-10 -11v-1v-8v-1v0v-1v-2q5 -14 35 -14t34 14q1 1 1 2v0.5v0.5v1v8v0v1zM620 28q0 7 -10.5 12t-25 5t-24.5 -5t-10 -12v-1v-8v-0.5v-0.5v-1v-1q5 -15 35 -15t34 15q1 0 1 1v0.5
v0.5v1v8v0.5v0.5zM717 64v-8v-0.5v-0.5v-1q0 -1 1 -2q4 -14 34 -14t35 14v2v1v1v8v0.5v0.5q0 7 -10 12t-24.5 5t-25 -5t-10.5 -12v-1zM354 55q0 7 -10.5 12t-25 5t-25 -5t-10.5 -12v0v-8v-1v0v-2l1 -1q4 -14 34 -14t35 14v1q0 1 0.5 1t0.5 1l-1 1v8h0.5h0.5zM707 177
q0 7 -10.5 11.5t-25 4.5t-24.5 -4.5t-10 -11.5v-1v-8v-1v0v-1v-2q5 -14 35 -14t34 14q1 1 1 2v0.5v0.5v1v8v0.5v0.5z" />
    <glyph glyph-name="yingjizhidufangan" unicode="&#xe684;" 
d="M713 379q-90 0 -154 -63.5t-64 -154t64 -154t154.5 -63.5t154 63.5t63.5 154t-63.5 154t-154.5 63.5v0zM678 51l-108 108l41 41l67 -67l138 139l41 -41l-179 -180v0zM268 309v0q-9 0 -15 6t-6 14.5t6 14.5t15 6h224q8 0 14 -6t6 -14.5t-6 -14.5t-14 -6h-224zM268 210v0
q-9 0 -15 6t-6 14.5t6 14.5t15 6h132q8 0 14 -6t6 -14.5t-6 -14.5t-14 -6h-132zM268 408v0q-9 0 -15 6t-6 14.5t6 14.5t15 6h355q8 0 14 -6t6 -14.5t-6 -14.5t-14 -6h-355zM268 507v0q-9 0 -15 6t-6 14.5t6 14.5t15 6h459q8 0 14 -6t6 -14.5t-6 -14.5t-14 -6h-459zM268 606
v0q-9 0 -15 6t-6 14.5t6 14.5t15 6h459q8 0 14 -6t6 -14.5t-6 -14.5t-14 -6h-459zM181 -51q-31 0 -54.5 23.5t-23.5 54.5v725q0 31 23.5 54.5t54.5 23.5h669q31 0 54.5 -23.5t23.5 -54.5v-329q-18 15 -45 15q-6 0 -11 -1v339h-712v-770h281q0 -32 17 -57h-277v0z" />
    <glyph glyph-name="huiyi-copy" unicode="&#xe6ad;" 
d="M308 458v35q0 25 13.5 43.5t35.5 26.5q12 4 26 4h142q32 0 53.5 -21t21.5 -54v-34h37v20q1 28 2 32q6 25 25 40.5t45 16.5h63h83q27 0 47 -16t26 -42q1 -7 1 -15v-106v-4h-7h-609q-60 0 -106 -30q-48 -31 -69 -85q-17 -41 -12 -86q4 -47 32 -86q29 -42 76 -63
q34 -15 73 -16q3 18 3 19q6 23 25 38.5t43 15.5h60q4 0 6 1q-49 6 -76 41.5t-23 78.5t35.5 71t74.5 28q43 -1 74.5 -30.5t33.5 -71.5q3 -44 -25 -78t-74 -40h16h43q4 0 7 -2q29 -30 68 -68q2 -3 2 -5v-68v-3h-5q-265 0 -285 1q-158 2 -232 143q-31 58 -25 130q6 94 72 161
q57 59 138 73q2 0 45 5v0zM637 -54v2q0 70 1 76q1 25 18.5 44t41.5 22q7 1 30 1h22.5t22.5 1q-49 6 -76 41.5t-23 76.5q4 43 35 72t74 29q42 0 73.5 -28t35.5 -70q5 -44 -22.5 -79.5t-76.5 -42.5h54q26 1 41 -7q39 -20 41 -60v-78h-292zM453.5 604q-45.5 0 -77.5 32
t-31.5 77.5t32.5 77.5t77 32t77.5 -32t32 -77.5t-32.5 -77.5t-77.5 -32zM893 713.5q0 -45.5 -32.5 -77.5t-77.5 -32t-77.5 32t-32 77.5t32.5 77.5t77.5 32t77.5 -32t32 -77.5z" />
    <glyph glyph-name="team" unicode="&#xe639;" 
d="M666 586q34 -29 80 -29q52 0 88.5 36.5t36.5 88.5t-36.5 88.5t-88.5 36.5q-26 0 -51 -11q20 -39 20 -83q0 -73 -49 -127zM309 557q46 0 81 29q-50 54 -50 127q0 44 20 83q-24 11 -51 11q-52 0 -88.5 -36.5t-36.5 -88.5t36.5 -88.5t88.5 -36.5zM777 522l-31 -277l-94 -62
v-156q41 -32 78 -32q17 0 36.5 8t30.5 16l11 8v187l69 56l25 220q-63 23 -125 32zM746 495q-125 31 -218 31q-42 0 -96.5 -8t-88.5 -16l-34 -7l31 -250l94 -62v-219q47 -31 94 -31q20 0 43.5 8t36.5 15l13 8v219l94 62zM278 525q-71 -3 -156 -30l31 -219l63 -62v-187
q41 -32 78 -32q10 0 21.5 3.5t21 8t18 9t12.5 7.5l5 4v176l-63 42zM527.5 557q64.5 0 110.5 45.5t46 110.5t-46 110.5t-110.5 45.5t-110 -45.5t-45.5 -110.5t45.5 -110.5t110 -45.5z" />
    <glyph glyph-name="dangzhibugongzuo" unicode="&#xe939;" 
d="M869 662q-238 40 -397 40q-25 0 -49.5 2.5t-44.5 7t-38 10.5t-32.5 12.5t-26.5 13.5t-20.5 12.5t-14.5 10.5l-9 7.5l-3 2.5v79h-79v-952h79v476q3 -3 9.5 -8.5t28.5 -19t47.5 -24t67 -19t85.5 -8.5q71 0 170 -10t163 -20l64 -10l-119 198z" />
    <glyph glyph-name="shangsheng" unicode="&#xe750;" 
d="M753 520l-206 173q-15 12 -35.5 12t-34.5 -12l-206 -173q-23 -20 -10.5 -45.5t44.5 -25.5h79v-1v-320q0 -26 19 -45t45 -19h128q26 0 45 19t19 45v320v1h78q33 0 45.5 25.5t-10.5 45.5z" />
    <glyph glyph-name="xiajiang" unicode="&#xe755;" 
d="M719 321h-77v1v318q0 26 -19 45t-45 19h-130q-26 0 -45 -19t-19 -45v-318v-1h-78q-33 0 -45.5 -26t10.5 -45l206 -173q15 -12 35.5 -12t34.5 12l207 173q23 19 10.5 45t-45.5 26z" />
    <glyph glyph-name="tzdfangwu" unicode="&#xe6bc;" 
d="M797 525v246h-108v-124l-177 202l-354 -403h708zM158 11h708v399h-708v-399zM548 337h214v-182h-214v182zM263 337h214v-182h-214v182zM158 -96h708v69h-708v-69z" />
    <glyph glyph-name="service" unicode="&#xe614;" 
d="M988 554q0 108 -76.5 184.5t-184.5 76.5q-61 0 -114.5 -26.5t-90.5 -73.5h-1q-58 58 -140 85v0h1q-42 15 -85 15q-108 0 -184.5 -76.5t-76.5 -184.5q0 -39 11 -77v0q14 -48 37 -82.5t40 -49.5l60 -57l-4 -4q-13 -13 -12.5 -31t13.5 -30.5t31 -12.5t31 13l4 4h1q3 0 3 -2
q0 -1 -1 -2v0l-3 -3q-13 -13 -13 -31.5t13 -31t31.5 -12.5t30.5 13l4 4q1 1 2 1q2 0 2 -3q0 -1 -1 -1v0v0v0l-3 -4q-13 -13 -12.5 -31t13.5 -31t31 -12.5t31 13.5l3 3v0q1 1 2 1q2 0 2 -2v-2v0v0h-1l-3 -3q-12 -13 -12 -31.5t13 -31t31 -12.5t31 13l4 4l-1 -1l58 -56
q25 -23 58 -23h1q36 1 60 26q24 26 23 61h3q35 0 60 26q23 25 23 59h3q36 1 60 26q24 26 23 61h3q35 0 60 26q21 23 22.5 54t-17.5 55q47 37 75 91.5t28 115.5zM845.5 270.5q-10.5 -11.5 -26.5 -11.5t-26 10l-61 58q-7 4 -14 4q-10 0 -17 -7t-7 -16q0 -12 9 -19l56 -53
q11 -10 11.5 -25.5t-10.5 -26.5t-27 -11q-15 0 -26 9l-59 58v-1q-7 7 -16 7q-10 0 -17 -7t-7 -17q0 -9 7 -16v0l58 -55q11 -11 11 -26.5t-10.5 -26.5t-26.5 -11q-15 0 -26 10l-58 55v0q-7 7 -17 7t-17 -6.5t-7 -16.5t8 -18l57 -54q11 -10 11.5 -25.5t-10 -26.5t-27.5 -11
q-15 0 -25 9l-58 56l3 3q13 13 12.5 31.5t-13.5 31t-31 12.5t-31 -13l-2 -2v0q0 -1 -2 -1t-2 2q0 1 1 2l2 2q12 13 12 31t-13 31t-31 12.5t-31 -13.5l-2 -2v0h-2q-2 0 -2 2v1v0l1 1v0l1 1q13 13 13 31.5t-13 31t-31.5 12.5t-30.5 -13l-3 -2q0 -1 -2 -1t-2 2q0 1 1 2v0l2 2
q13 13 12.5 31t-13.5 31t-31 12.5t-31 -13.5l-2 -2l-61 59q-5 5 -13.5 14t-26 41.5t-26.5 70.5v0q-5 24 -5 47q0 87 62 149.5t150 62.5q25 0 50 -7v0q77 -21 131 -70l-216 -214q-14 -13 -14 -33q0 -19 13 -32t32 -13h2.5h1.5v0q1 0 2 0.5l1 0.5h3q16 3 43 23.5t63 50
t60 44.5q26 16 45.5 22t48.5 6q47 0 82 -31q4 -3 9 -8l132 -126v-1l57 -55q11 -10 12 -25.5t-9.5 -27z" />
    <glyph glyph-name="weishengxinxi" unicode="&#xe930;" 
d="M859 713q0 48 -34 82t-82 34h-462q-48 0 -82 -34t-34 -82v-694q0 -48 34 -81.5t82 -33.5h462q48 0 82 33.5t34 81.5v694zM327 586h139v142q0 19 13.5 33t32.5 14t32.5 -14t13.5 -33v-142h139q19 0 32.5 -13.5t13.5 -32.5t-13.5 -32.5t-32.5 -13.5h-139v-136
q0 -19 -13.5 -32.5t-32.5 -13.5t-32.5 13.5t-13.5 32.5v136h-139q-19 0 -32.5 13.5t-13.5 32.5t13.5 32.5t32.5 13.5zM732 -4h-440q-9 0 -16 7t-7 16.5t7 16.5t16 7h440q9 0 16 -7t7 -16.5t-7 -16.5t-16 -7zM732 101h-440q-9 0 -16 6.5t-7 16t7 16.5t16 7h440q9 0 16 -7
t7 -16.5t-7 -16t-16 -6.5zM732 205h-440q-9 0 -16 6.5t-7 16t7 16.5t16 7h440q9 0 16 -7t7 -16.5t-7 -16t-16 -6.5z" />
    <glyph glyph-name="huiyiyuding" unicode="&#xe60f;" 
d="M62 673q0 -30 22 -52t53 -22t53 22t22 52v0q0 31 -22 53t-53 22t-53 -22t-22 -53v0zM341 206l-129 62v271q0 13 -9 22t-22 9h-88q-12 0 -21.5 -9t-9.5 -22v-280q0 -23 22 -30l195 -78v-175q0 -12 9 -21.5t22 -9.5h19q13 0 22 9.5t9 21.5v202q0 20 -19 28zM812 673
q0 -30 22 -52t53 -22t53 22t22 52v0q0 31 -22 53t-53 22t-53 -22t-22 -53v0zM931 570h-88q-13 0 -22 -9t-9 -22v-271l-129 -62q-19 -8 -19 -28v-202q0 -12 9 -21.5t22 -9.5h19q13 0 22 9.5t9 21.5v175l195 78q22 7 22 30v280q0 13 -9.5 22t-21.5 9zM466 300h-18
q-13 0 -22 -9.5t-9 -21.5v-211q0 -13 9 -22t22 -9h18q13 0 22 9t9 22v211q0 12 -9 21.5t-22 9.5zM576 300h-18q-13 0 -22 -9.5t-9 -21.5v-211q0 -13 9 -22t22 -9h18q13 0 22 9t9 22v211q0 12 -9 21.5t-22 9.5zM437 748q0 -31 22 -53t53 -22t53 22t22 53t-22 53t-53 22
t-53 -22t-22 -53v0zM287 340h450q11 0 19 8t8 19t-8 19t-19 8h-123v214q0 13 -9 22t-22 9h-142q-13 0 -22 -9t-9 -22v-214h-123q-11 0 -19 -8t-8 -19t8 -19t19 -8z" />
    <glyph glyph-name="weituotubiao" unicode="&#xe615;" horiz-adv-x="1371" 
d="M523 765l383 -286h113l-227 174v96h-61v-48l-3 3l-205 160l-418 -324q-7 -6 -25.5 -21.5t-33 -27.5l-14.5 -12h123zM412 209v18q0 35 9 68t33.5 60.5t58.5 29.5t60.5 -25.5t33.5 -63.5q55 27 95 55q58 41 176 47v40l-355 261l-342 -261v-264q0 -22 8.5 -46t22.5 -38
q115 -31 123 -32q16 -3 40 -3.5t40 0.5l16 1v17q-42 -12 -69 -12q-39 0 -53 19q-17 26 -2 50q14 22 35 38.5t70 40.5zM878 356q-110 -5 -163 -43q-39 -28 -114 -64q-36 -17 -89 -41q-66 -30 -81 -37q-94 -46 -101 -69q-1 -5 2 -9q7 -10 30 -10q26 0 69 13q71 21 176 75v-3
q1 0 2.5 2t2.5 3l2 1q3 1 4 2v-38q-41 -44 -99 -83t-109 -39h-1q-47 1 -163 31q-101 27 -136 27q-40 0 -45 -26q-1 -7 4 -15t26.5 -22t59.5 -29q63 -24 192 -55q97 -23 188 -23q107 0 173 30q28 13 119 70q109 69 146 84q76 31 150 47l36 194q-129 27 -245 27q-12 1 -36 0z
M1177 118l35 206l105 -18l-36 -206z" />
    <glyph glyph-name="rongyujiangxiang" unicode="&#xe662;" 
d="M959 585q0 -48 -22 -99t-61.5 -87t-84.5 -36q-22 0 -36 2q-34 -79 -96 -129.5t-103 -50.5v-141h68q10 0 19 -15.5t9 -29t-9 -29.5t-19 -16h-224q-11 0 -19.5 16t-8.5 29.5t8.5 29t19.5 15.5h67v141q-39 0 -101 52t-98 128q-14 -2 -36 -2q-44 0 -84 36t-62 87t-22 99v12
q0 77 23 89.5t161 12.5v0q0 48 33 81.5t79 33.5h303q46 0 79 -33.5t33 -81.5q128 0 153 -9q27 -9 30 -45q1 -12 1 -60zM248 626q-20 0 -40.5 0.5t-30 2t-19.5 0.5t-13 -1.5t-5.5 -7t-2.5 -13v-22.5q0 -51 33.5 -99.5t77.5 -48.5v189zM775 626v-189q44 0 78 48.5t34 99.5
v22.5t-3 13t-6 7t-12.5 1.5t-19.5 -0.5t-30.5 -2t-40.5 -0.5z" />
    <glyph glyph-name="dangyuanzuzhiguanli" unicode="&#xe605;" 
d="M512 816q83 -31 148 -94t100.5 -140t36 -166t-42.5 -167l-282 284l108 108l-68 67q-27 -26 -67 -33.5t-69 5.5l-215 -215l122 -121l81 80l282 -283q-69 -38 -151 -42t-166.5 30.5t-153.5 106.5l-68 -68q43 -60 59 -76q-2 -2 -8 -7v0q-1 0 -5.5 1t-6.5 1
q-27 0 -46.5 -20.5t-19.5 -48.5q0 -27 19.5 -46.5t47 -19.5t47.5 19.5t20 47.5q0 3 -2 12l11 10q257 -173 532 -9l80 -79l108 107l-80 81q55 83 72.5 169.5t0 160t-59 139.5t-100 111.5t-127.5 71t-137 23.5v0z" />
    <glyph glyph-name="shenghuo" unicode="&#xe63e;" horiz-adv-x="1356" 
d="M113 146l394 3l1 -83l-134 -1l2 -162l450 -2l30 326l-22 3q-3 -3 -9 -8t-25.5 -15t-40.5 -15t-54 -2t-68 17q-78 33 -90 124q-4 36 5 68.5t25 53.5t33 37t28.5 26.5t10.5 14.5q0 1 -13.5 20t-22.5 46.5t-2 56.5q15 74 76 106q16 9 33.5 13t27.5 3h9q-14 104 61 148
q59 35 131 13q69 -22 88 -82q10 -35 -2 -77q5 0 11.5 -1t25.5 -6.5t34.5 -14.5t32 -29t23.5 -47q10 -47 3 -81t-22 -52l-14 -18q4 -3 11 -7.5t24.5 -20.5t30.5 -34.5t23.5 -49t9.5 -63.5q-1 -42 -17.5 -76t-40.5 -53t-47.5 -29t-44.5 -11q-48 0 -88 17l-55 27h-19l24 -326
l347 1l1 -82h-1175v79h148v166l-149 -1l1 80v0zM113 146z" />
    <glyph glyph-name="gongyi" unicode="&#xe836;" horiz-adv-x="1205" 
d="M1133 479q22 75 14 146.5t-46 122.5q-85 116 -236 116q-135 0 -246 -122q-110 122 -246 122q-81 0 -151.5 -41t-105.5 -113q10 -23 87 -64q44 111 170 111q72 0 139.5 -51.5t106.5 -138.5q40 87 108.5 138.5t137.5 51.5q47 0 86.5 -18.5t63.5 -52.5q66 -93 5 -208
q55 6 113 1v0zM1161 430q-16 2 -35 3.5t-52 2.5t-63.5 -4t-61.5 -14t-55 -29t-35 -48q0 2 0.5 8t0.5 7.5t0.5 6.5t1 7t1 6.5t1.5 7t2.5 6t3.5 6.5t4 5q-49 -26 -86 -72t-55 -89t-44.5 -98.5t-52.5 -89.5q-15 92 -60.5 188.5t-96.5 161.5q-13 17 -42 52t-50.5 62.5
t-37.5 51.5q1 -12 -1.5 -37.5t-2.5 -36.5q-16 22 -55.5 45.5t-80.5 43.5t-79 42.5t-57 51.5t-9 61q-40 -63 -30.5 -182t53.5 -185q28 -44 75.5 -81t92 -58.5t101 -52t92.5 -57.5q109 -81 171 -177q16 23 33 44t30.5 37t33 34t30.5 28t32 25.5t29 21.5t31 22t28 19
q87 61 137 112q15 15 34.5 42.5t33 46t37.5 34.5t53 19v0z" />
    <glyph glyph-name="nv" unicode="&#xe611;" 
d="M398 240q-7 -2 -18 -5.5t-40 -8.5t-51.5 -3.5t-40.5 16t-18 43.5q0 7 9 23.5t9 36.5q0 1 -2.5 24t-3.5 52t-1 70t6 82t16.5 84t32 80t51 66.5t75 46.5t102.5 17q59 0 105 -21.5t73.5 -56t46 -81.5t25.5 -92.5t9 -95t0 -83.5t-5 -63l-2 -29q0 -24 9 -39t9 -21
q0 -29 -17.5 -43.5t-42 -15.5t-49 2.5t-41.5 8.5l-18 6q-1 -4 -1.5 -10.5t4.5 -26t17.5 -36.5t44.5 -37.5t79 -33.5q38 -12 68 -26t49.5 -26t33.5 -28t21 -26t10.5 -25.5t4 -21.5t-0.5 -19v-14h-900v14t9 34t26 47t56.5 48t94.5 43q49 13 83 33t47.5 38.5t20.5 35.5t6 27
l-1 10v0zM398 240z" />
    <glyph glyph-name="notice" unicode="&#xe6b7;" 
d="M386 99q0 -41 37 -70t89 -29t89 29t37 70h-252zM494 768q-112 0 -185 -78t-73 -192v-206l-102 -168h756l-101 169v203q0 114 -73.5 193t-185.5 79h-36z" />
    <glyph glyph-name="huodong1" unicode="&#xe64d;" 
d="M776 816q-110 -48 -166 -48q-39 0 -78.5 15t-67.5 33t-68 33t-79 15q-25 0 -66.5 -12t-70.5 -24l-29 -12l167 -432q110 48 165 48q39 0 79 -15t68 -33t68 -33t80 -15q25 0 66.5 12t70.5 24l29 12zM80 812l234 -908l56 4l-243 916z" />
    <glyph glyph-name="zuzhiguanli" unicode="&#xe690;" 
d="M595 261q-2 0 -7.5 8.5t-8.5 25t6 40.5v0q31 31 51 77.5t20 94.5q0 70 -41 110t-97 40q-59 0 -98.5 -39.5t-39.5 -110.5q0 -49 18.5 -95t48.5 -77q9 -26 0 -47.5t-18 -26.5q-68 -25 -117 -61t-49 -74v-18q0 -25 21.5 -43t59.5 -27.5t80.5 -13.5t93.5 -4q251 0 251 88v18
q-3 38 -55.5 76t-118.5 59v0zM829 393q-3 0 -7 3.5t-7.5 15t3.5 32.5v0q27 28 44 71.5t17 89.5q0 67 -36.5 105t-91.5 38q-39 0 -69.5 -20t-43.5 -57q71 -61 71 -164q0 -55 -21.5 -107t-53.5 -91q36 -13 68.5 -30.5t65 -48t43.5 -64.5q77 3 127 22.5t50 58.5v18
q3 38 -44.5 72t-114.5 56v0zM192 393q3 0 7.5 3.5t7.5 15t-4 32.5v0q-27 28 -44 71.5t-17 89.5q3 67 39 105t89 38q39 0 69.5 -20t43.5 -57q-71 -61 -71 -164q0 -55 21.5 -107t53.5 -91q-36 -13 -68 -30.5t-65 -48t-44 -64.5q-77 3 -127 22.5t-50 58.5v18q0 38 47 72t112 56
v0z" />
    <glyph glyph-name="fuwu" unicode="&#xe608;" 
d="M275 813q-83 0 -142 -59t-59 -142t59 -142t142 -59h201v201q0 83 -59 142t-142 59v0zM940 612q0 83 -59 142t-142 59t-142 -59t-59 -142v-201h201q83 0 142 59t59 142v0zM74 148q0 -83 59 -141.5t142 -58.5t142 58.5t59 141.5v201h-201q-83 0 -142 -58.5t-59 -142.5v0z
M739 349h-201v-201q0 -83 58.5 -141.5t142 -58.5t142.5 58.5t59 142t-59 142t-142 58.5v0z" />
    <glyph glyph-name="jiankang" unicode="&#xe606;" 
d="M313 397h-234q-48 79 -37 172t80 160t163 75q68 6 129 -20.5t102 -76.5q37 45 90.5 71t113.5 27q107 1 186.5 -73.5t84.5 -181.5q5 -87 -42 -159h-330q-14 0 -18 -13l-27 -76l-208 249q-9 11 -21.5 6t-12.5 -18v-122q0 -8 -5.5 -14t-13.5 -6zM573 212l-183 219v-73
q0 -8 -5.5 -13.5t-13.5 -5.5h-244l2 -2t3 -2l384 -385l382 383h-238q-14 0 -18 -13l-36 -102q-4 -11 -15 -13t-18 7z" />
    <glyph glyph-name="rili" unicode="&#xe616;" horiz-adv-x="1138" 
d="M405 700h320v80h-320v-80zM885 700h81q16 0 27.5 -12t11.5 -30v-618q0 -18 -11.5 -30.5t-28.5 -12.5h-799q-17 0 -29 12.5t-12 30.5v618q0 18 12 30t29 12h81v80h-81q-50 0 -85.5 -35.5t-35.5 -86.5v-618q0 -51 35.5 -87t85.5 -36h799q50 0 85 36t35 87v618
q0 51 -35 86.5t-84 35.5h-81v-80zM285 824q0 17 12 28.5t28.5 11.5t28 -11.5t11.5 -28.5v-168q0 -16 -11.5 -27.5t-28 -11.5t-28.5 11.5t-12 27.5v168zM765 824q0 17 12 28.5t28.5 11.5t28 -11.5t11.5 -28.5v-168q0 -16 -11.5 -27.5t-28 -11.5t-28.5 11.5t-12 27.5v168z
M285 453q0 17 12 28.5t29 11.5h479q17 0 28.5 -11.5t11.5 -28t-11.5 -28.5t-28.5 -12h-479q-17 0 -29 11.5t-12 28.5zM285 247q0 17 12 28.5t29 11.5h479q17 0 28.5 -11.5t11.5 -28.5t-11.5 -28.5t-28.5 -11.5h-479q-17 0 -29 11.5t-12 28.5z" />
    <glyph glyph-name="shehuiguanxi" unicode="&#xe6b3;" 
d="M478 640q-106 0 -181 -75t-75 -181t75 -181t181 -75t181 75t75 181t-75 181t-181 75zM928 484q-35 156 -160.5 258.5t-289.5 102.5q-67 0 -132 -19q-13 24 -37 38.5t-53 14.5q-42 0 -72 -30t-30 -72q0 -28 14 -52q-71 -65 -111 -153.5t-40 -187.5q0 -97 38.5 -184
t106.5 -151q-8 -19 -8 -40q0 -43 30 -73t72 -30q50 0 81 39q68 -22 141 -22q164 0 289.5 102.5t160.5 258.5q34 8 56.5 36t22.5 64t-22.5 64t-56.5 36zM876 286q-34 -136 -144.5 -224t-253.5 -88q-62 0 -121 19q1 8 1 16q0 42 -30 72t-72 30q-35 0 -63 -22q-59 57 -92 133.5
t-33 161.5q0 89 36 168t100 136q24 -14 52 -14q42 0 72 30t30 72q59 18 120 18q143 0 253.5 -88t144.5 -224q-33 -9 -53.5 -36.5t-20.5 -61.5t20.5 -61.5t53.5 -36.5z" />
    <glyph glyph-name="wuzi" unicode="&#xe6e5;" horiz-adv-x="1025" 
d="M616 -56v257h-207v-257l-13 -1h-206q-19 0 -31 12t-13 32q0 140 1 317q0 9 8 17q50 44 207 181q135 118 138 121q2 2 6 5.5t6 4.5q69 -60 82 -72q228 -199 270 -236q14 -12 14 -30v-301q0 -31 -19 -44q-11 -7 -19 -7h-220l-4 1v0v0v0zM749 662v46.5v59v43.5
q0 5 -0.5 12.5t-0.5 9.5t2 5t5.5 3.5t10.5 0.5h87q14 0 19.5 -6t5.5 -22v-251q0 -18 13 -29q27 -23 118 -104q14 -13 15 -22t-12 -24q-4 -5 -13.5 -17.5t-15.5 -19.5q-17 -21 -37 -3l-210 186t-209 185q-2 2 -7.5 7t-7.5 6q-8 -7 -42 -36.5t-52 -45.5q-45 -40 -161 -143
t-179 -159q-11 -10 -19.5 -9.5t-17.5 13.5q-17 20 -32 40q-10 11 -9 20t12 19q30 27 190 168q28 25 79.5 70.5t94 83t79.5 70.5q57 51 114 0q27 -24 136 -121q1 0 9 -7v0l35 -29v0z" />
    <glyph glyph-name="xinxicaiji" unicode="&#xe60e;" 
d="M237 769h554q7 0 12 5t5 12v35q0 7 -5 12t-12 5h-554q-7 0 -12 -5t-5 -12v-35q0 -7 5 -12t12 -5zM151 648h726q7 0 12 5t5 12v34q0 8 -5 13t-12 5h-726q-8 0 -13 -5t-5 -13v-34q0 -7 5 -12t13 -5zM727 263.5q-8 7.5 -19 12t-23 4.5h-10l-39 70q9 8 14.5 19t5.5 23
t-4.5 22.5t-13 18.5t-19 12t-23 4t-23 -4t-18.5 -12t-12.5 -18.5t-4.5 -22.5t5 -23t15 -19l-72 -155q-4 1 -7 1q-6 0 -12 -1.5t-12 -4.5l-71 87q4 7 6.5 15t2.5 16q0 12 -4.5 22.5t-12.5 18t-19 12t-23 4.5t-23 -4.5t-19 -12t-12.5 -18t-4.5 -22.5t4.5 -22t12.5 -17.5
t19 -12t23 -4.5h4.5h4.5l81 -95q-2 -4 -2.5 -8.5t-0.5 -10.5q0 -11 4.5 -21.5t12.5 -18t18.5 -12t22.5 -4.5t23 4.5t19 12t12.5 18t4.5 21.5q0 10 -3 18.5t-9 16.5l71 152l40 -70q-4 -6 -7 -14.5t-3 -17.5q0 -12 4.5 -22.5t12.5 -18t18.5 -12t22.5 -4.5t23 4.5t19 12t13 18
t5 22.5t-5 22.5t-13 18zM929 596h-830q-15 0 -25 -10t-10 -25v-588q0 -14 10 -24t25 -10h830q14 0 24.5 10t10.5 24v588q0 15 -10.5 25t-24.5 10zM894 25q0 -7 -5 -12t-12 -5h-726q-8 0 -13 5t-5 12v484q0 8 5 13t13 5h726q7 0 12 -5t5 -13v-484z" />
    <glyph glyph-name="dangyuandangyuanguanlidangyuanzhuanchu" unicode="&#xe664;" 
d="M530 878q47 -14 49 -15q70 -25 110.5 -87.5t32.5 -133.5q-9 -73 -64 -127t-131 -62q-86 -10 -156 34t-92 122q-25 88 26.5 167.5t145.5 97.5q1 0 16 4h63zM513 -78q-32 18 -25 44q6 26 45 27q-6 8 -32 42q8 7 22 19.5t18 15.5q106 -98 241 -53q-48 45 -153 141
q-12 -12 -30 -32q-3 3 -64 65q84 84 106 105q3 4 19 5h14t15 1t15 4t13 3q2 1 5 -2q6 -5 31 -30q-28 -29 -49 -51q139 -148 140 -149q22 22 24 63q6 137 -124 211q-3 1 -8 3.5t-6 3.5l-1 2q24 4 62.5 -7.5t67.5 -31.5q72 -50 89 -136q0 -1 4 -14v-53q-19 -51 -40 -106
q7 -5 35 -27q-8 -9 -58 -63h-4q-26 27 -30 31q-7 6 -16 4q-17 -6 -96 -35h-59q-8 3 -51 18t-65 22q-26 -30 -34 -40h-21zM466 191q29 -42 32 -48q6 -12 1 -21q-35 -73 -85 -168q-6 -12 -14 -12q-16 1 -47.5 2t-50.5 2t-46 3t-49 6q-43 6 -57 24.5t-13 62.5q5 172 97 277
q71 80 182 81q63 1 180 0q15 0 29 -3q41 -10 15 -41q-6 -8 -37 -36q-16 -16 -137 -129z" />
    <glyph glyph-name="jijin" unicode="&#xe623;" 
d="M908 618h-792q-21 0 -36 -15t-15 -36v-498q0 -21 15 -36t36 -15h792q21 0 36 15t15 36v498q0 21 -15 36t-36 15zM263 465h-102q-13 0 -22.5 9.5t-9.5 22.5t9.5 22.5t22.5 9.5h102q13 0 22.5 -9.5t9.5 -22.5t-9.5 -22.5t-22.5 -9.5zM518.5 107q-71.5 0 -122 62t-50.5 149
t50.5 149t122 62t122 -62t50.5 -149t-50.5 -149t-122 -62zM863 107h-102q-13 0 -22.5 9.5t-9.5 23t9.5 22.5t22.5 9h102q13 0 22.5 -9t9.5 -22.5t-9.5 -23t-22.5 -9.5zM199 656h639q18 0 31 13.5t13 32t-13 31.5t-31 13h-639q-18 0 -31 -13t-13 -31.5t13 -32t31 -13.5z
M595 350q8 0 13.5 5.5t5.5 13.5t-5.5 13.5t-13.5 5.5h-30l23 23q6 6 6 14t-6 13.5t-14 5.5t-13 -5l-35 -35l-0.5 -0.5t-0.5 -1.5q-1 2 -2 3l-34 34q-6 5 -14 5t-13.5 -5.5t-5.5 -13t6 -13.5l23 -24h-43q-8 0 -13.5 -5.5t-5.5 -13.5t5.5 -13.5t13.5 -5.5h57v-38h-57
q-8 0 -13.5 -5.5t-5.5 -13.5t5.5 -13.5t13.5 -5.5h57v-11v-47q0 -8 5.5 -13.5t13.5 -5.5t13.5 5.5t5.5 13.5v57h58q8 0 13.5 6t5.5 14t-5.5 13.5t-13.5 5.5h-37h-21v38h58z" />
    <glyph glyph-name="xiangmu" unicode="&#xe612;" 
d="M760 371h-307q-19 0 -32.5 13.5t-13.5 32.5t13.5 32.5t32.5 13.5h307q20 0 33 -13.5t13 -32.5t-13 -32.5t-33 -13.5zM236 235.5q0 -21.5 13.5 -35t34.5 -13.5t35 14.5t14 34t-14 34t-35 14.5t-34.5 -13.5t-13.5 -35zM236 417q0 -21 13.5 -34.5t34.5 -13.5t35 14.5t14 34
t-14 34t-35 14.5t-34.5 -14.5t-13.5 -34.5zM760 189h-307q-19 0 -32.5 13.5t-13.5 33t13.5 33t32.5 13.5h307q20 0 33 -13.5t13 -33t-13 -33t-33 -13.5zM970 41v576q0 19 -6.5 33t-16 19.5t-19 8.5t-15.5 3h-7h-361q-9 0 -17 2.5t-12 5.5l-4 2q-15 26 -44 67
q-11 20 -25.5 29.5t-23.5 9.5l-9 -1h-279q-23 0 -39 -7.5t-23.5 -18.5t-12 -22t-4.5 -18l-1 -8v-676q0 -24 7 -40.5t16 -22.5t18.5 -9.5t16 -2t6.5 0.5h799q56 0 56 69z" />
    <glyph glyph-name="zuzhi" unicode="&#xe635;" 
d="M519 -30q-6 -4 -14 -4t-15 4l-372 196l140 74l204 -108q20 -11 43 -11t44 11l203 108l140 -75l-373 -195v0zM255 458l207 -110q20 -10 43 -10t44 11l206 109l137 -74l-373 -198q-6 -3 -14 -3t-14 3l-373 200l137 72v0zM921 221l-103 54l103 54q33 18 33 56t-33 55l-99 53
l99 52q33 18 33 56t-33 56l-373 196q-20 11 -43 11t-44 -11l-372 -196q-33 -18 -33 -56t33 -56l99 -52l-99 -53q-33 -18 -33 -55v0q0 -38 33 -56l103 -54l-103 -54q-33 -18 -33 -55v0q0 -38 33 -56l373 -195q20 -11 43 -11t44 11l372 195q33 18 33 55v1v0q0 37 -33 55v0z
" />
    <glyph glyph-name="1zhengwu" unicode="&#xe610;" 
d="M877 788h-729q-33 0 -57 -23.5t-24 -57.5v-485q0 -34 24 -57.5t57 -23.5h284l-81 -122v-40h323v40l-81 122h284q33 0 56.5 23.5t23.5 57.5v485q0 34 -23.5 57.5t-56.5 23.5zM877 303h-729v404h729v-404z" />
    <glyph glyph-name="zhuanjie" unicode="&#xe60a;" 
d="M112 -17q71 -71 171.5 -71t170.5 71l327 327q13 13 12.5 31t-13 31t-31 13t-31.5 -13l-326 -327q-45 -45 -108.5 -45t-109 45t-45.5 109t45 109q13 13 13 31t-12.5 31t-31 13t-31.5 -13q-71 -70 -71 -170.5t71 -171.5zM626 714q45 45 108.5 45t109 -45t45.5 -108.5
t-46 -108.5q-12 -13 -12 -31.5t12.5 -31.5t31 -13t31.5 13q71 71 71 171.5t-71 171t-171.5 70.5t-171.5 -70l-327 -327q-12 -13 -12 -31.5t12.5 -31.5t31 -13t31.5 13zM223 417q1 -19 14.5 -31t32 -11t30.5 14.5t11 31.5l-8 163q0 18 -13.5 30.5t-32 11.5t-30.5 -14.5
t-11 -31.5zM269 463q-18 1 -31.5 -11.5t-14.5 -30.5t11.5 -31.5t30.5 -14.5l163 -8q19 -1 32.5 11.5t14 30.5t-11.5 31.5t-30 14.5zM588 393q-18 1 -31.5 -11.5t-14.5 -30.5t11.5 -31.5t30.5 -14.5l163 -8q19 -1 32.5 11.5t14 30.5t-11.5 31.5t-30 14.5zM713 176
q1 -19 14.5 -31t32 -11t30.5 14.5t11 31.5l-8 163q0 18 -13.5 30.5t-32 11.5t-30.5 -14.5t-11 -31.5z" />
    <glyph glyph-name="nanrentouxiang" unicode="&#xe613;" 
d="M750 582q1 -1 4.5 -3t4.5 -3l9 -6v-11q1 -48 -11 -79q-12 -29 -34 -41q-17 -61 -40 -100q-32 -53 -82 -71q-24 -9 -99 -8q-71 1 -94 11q-46 21 -75 74q-19 35 -35 93q-23 12 -36 41q-12 30 -12 80v11l10 6l7 5q-9 93 -1.5 140t42.5 86q44 37 120.5 50t152.5 0.5
t122 -45.5q44 -43 54 -99t-7 -131zM557 231l2 -29l-18 -28l24 -157l99 210l149 5q60 -55 92 -139t23 -166l-833 -5q4 206 118 306l135 -2l127 -208l24 155l-17 29l1 28q36 3 74 1zM669 627q-138 -27 -217 17q-15 8 -50.5 -3t-48.5 -9q-15 -30 -21 -65l-4 -18l-19 2
q-5 0 -11 -2q-1 0 -2.5 -1t-2.5 -1q0 -32 9 -51q7 -17 20 -22l11 -3l3 -11q18 -64 34 -94q22 -40 56 -55q14 -7 77 -8q65 -1 84 6q37 14 61 54q20 34 37 98l3 10l11 4q12 4 19 22q8 20 9 51q-1 1 -5 2q-5 2 -11 2l-19 -1l-3 18q-6 29 -20 58z" />
    <glyph glyph-name="fuwu1" unicode="&#xe65f;" 
d="M798 834h-574q-47 0 -80.5 -33t-33.5 -79v-788h53l119 84l115 -84l114 84l115 -84l115 84l119 -84h53v788q0 46 -33.5 79t-81.5 33zM629 396l28 -159l-146 75l-145 -75l27 159l-118 113l163 23l73 145l73 -145l164 -23z" />
    <glyph glyph-name="icon_funvjiankangguanli" unicode="&#xe629;" 
d="M959 297q-30 31 -71.5 31t-71.5 -31l-4 -4l-1 -1l-1 -1l-21 -22l-26 28q-30 31 -72 31t-71.5 -31t-29.5 -75t30 -75l162 -168l177 169q30 31 30 74.5t-30 74.5zM567 254q-53 19 -53 35v52q0 -3 3 -6.5t24 -4t57 10.5l84 27l-6 6t-13.5 17.5t-17 27.5t-13.5 36t-6 45
q0 27 -0.5 43.5t-2.5 47t-7.5 51.5t-14.5 46t-24 43.5t-35 31.5q-58 36 -127 33q-69 3 -127 -33q-20 -13 -35 -31.5t-24 -43.5t-14.5 -46t-7.5 -51.5t-2.5 -47t-0.5 -43.5q0 -36 -14 -68.5t-28 -48.5l-14 -15v0l83 -27q36 -11 56.5 -10.5t23.5 4t3 6.5v-52q0 -8 -11 -16
t-35 -16.5t-43.5 -15t-55 -16.5t-51.5 -15q-17 -6 -31 -17.5t-22.5 -26t-14.5 -31t-9 -31.5t-4.5 -27t-2 -20t0.5 -8q24 1 62 1h581l-79 79q-51 53 -32 125z" />
    <glyph glyph-name="gonghuishequ" unicode="&#xe607;" 
d="M807 640q38 -11 76 -11q33 0 67 9v154q-52 -28 -108 -11q-59 18 -105 21v14q0 10 -7 17.5t-17.5 7.5t-18 -7.5t-7.5 -17.5v-200l-136 136q-15 16 -37 16t-38 -16l-391 -392q-8 -7 -8 -17t8 -17l7 -8q7 -7 17 -7v0q11 0 18 7l61 62v-335h-14q-14 0 -24 -10t-10 -24t10 -24
t24 -10h680q14 0 23.5 10t9.5 24t-9.5 24t-23.5 10h-15v334l61 -61q8 -7 18 -7v0v0q10 0 17 7l8 8q7 7 7 17t-7 17l-206 206v90q30 -3 70 -16zM604 45h-181v192h181v-192z" />
    <glyph glyph-name="guizhangzhidu" unicode="&#xe609;" 
d="M906 831h-789q-22 0 -37.5 -15.5t-15.5 -36.5v-790q0 -21 15.5 -36.5t37.5 -15.5h542l300 310v532q0 21 -15.5 36.5t-37.5 15.5zM676 31v195h187zM649 280q-12 0 -19.5 -8t-7.5 -19v-263h-504v788h787v-498h-256zM422 273l53 41h-66l-18 56l-19 -56h-67l53 -41l-24 -69
l56 44l54 -43zM390 111q-73 0 -124.5 51.5t-51.5 124.5t51.5 125t124.5 52t125 -52t52 -125t-52 -124.5t-125 -51.5zM390.5 410q-50.5 0 -86.5 -36t-36 -87t36 -87t86.5 -36t86.5 36t36 87t-36 87t-86.5 36zM791 562h-543q-11 0 -19 8t-8 19t8 19t19 8h543q11 0 19 -8t8 -19
t-8 -19t-19 -8zM791 418h-174q-11 0 -19 8t-8 19t8 19t19 8h174q11 0 19 -8t8 -19t-8 -19t-19 -8z" />
    <glyph glyph-name="juweihui" unicode="&#xe60b;" horiz-adv-x="1210" 
d="M1127 524l-305 331q-5 9 -22 9q-13 0 -22 -9l-196 -196l-192 196q-9 9 -22 9t-22 -9l-305 -331q-9 -9 -9 -22v-541q0 -13 8.5 -22t22.5 -9h1047q13 0 21.5 9t8.5 22v541q-8 17 -13 22zM577 572l166 -153l13 -13q30 -33 30 -81t-30 -81q-29 -29 -69.5 -29t-69.5 29l-40 40
l-39 -40q-29 -29 -69.5 -29t-69.5 29q-30 33 -30 81t30 81zM1066 -4h-977v493l275 296l170 -170l-166 -152l-13 -14q-46 -52 -46 -124t46 -124.5t118 -52.5q65 0 109 44q51 -44 109 -44q72 0 118 52.5t46 124.5t-46 124l-179 166l170 170l275 -296v-493h-9z" />
    <glyph glyph-name="shuji" unicode="&#xe68e;" 
d="M122 682v-564q9 6 24.5 15t65 24.5t98.5 15.5t96 -14t69 -28l23 -13v557q-4 3 -9.5 7.5t-25 15.5t-40 19t-51.5 15t-62 7q-49 0 -96 -14t-70 -28zM526 682v-564q9 6 25 15t65 24.5t98 15.5t96 -14t70 -28l22 -13v557q-3 3 -9 7.5t-25 15.5t-40 19t-52 15t-62 7
q-49 0 -96 -14t-69 -28zM64 626h29v-540h347v-29h144v29h347v540h29v-569h-347l2 -28h-204v28h-347v569z" />
    <glyph glyph-name="kehujiandu" unicode="&#xe63c;" 
d="M679.5 361q54.5 0 92.5 38.5t38 92.5t-38 92.5t-92.5 38.5t-93 -38.5t-38.5 -92.5t38.5 -92.5t93 -38.5zM907.5 723.5q-57.5 64.5 -137.5 90.5t-162.5 9.5t-146.5 -73.5q-94 -84 -105 -208t65 -222l-77 -68l-29 32l-278 -247l87 -99l278 248l-29 33l77 68q29 -28 73 -52
q-29 -46 -29 -99v-159h371v159q0 58 -33 105q27 16 49 36q65 57 91 137t9.5 162.5t-74 147zM813 265q-55 57 -134 57q-82 0 -138 -63q-49 25 -84 64q-79 88 -72 206.5t95.5 197.5t207 72t197.5 -95.5t72 -207t-96 -197.5q-21 -19 -48 -34z" />
    <glyph glyph-name="jieshao" unicode="&#xe63a;" 
d="M851 -96h-678q-58 0 -99.5 41.5t-41.5 99.5v678q0 58 41.5 99.5t99.5 41.5h678q58 0 99.5 -41.5t41.5 -99.5v-678q0 -58 -41.5 -99.5t-99.5 -41.5zM173 808q-35 0 -60 -25t-25 -60v-678q0 -35 25 -60t60 -25h678q35 0 60 25t25 60v678q0 35 -25 60t-60 25h-678z
M241 564.5q0 -18.5 13 -31.5t32 -13t32 13t13 31.5t-13 32t-32 13.5t-32 -13.5t-13 -32zM241 384q0 -19 13 -32t32 -13t32 13t13 32t-13 32t-32 13t-32 -13t-13 -32zM241 203.5q0 -18.5 13 -32t32 -13.5t32 13.5t13 32t-13 31.5t-32 13t-32 -13t-13 -31.5zM422 593h361v-57
h-361v57zM422 412h361v-56h-361v56zM422 232h361v-57h-361v57z" />
    <glyph glyph-name="chengshi" unicode="&#xe618;" 
d="M867 478h-131q-16 0 -26.5 -11t-10.5 -27v-503h205v503q0 16 -11 27t-26 11zM829 30h-56v56h56v-56zM829 160h-56v56h56v-56zM829 310h-56v56h56v-56zM643 328h-94q-15 0 -26 -11t-11 -26v-354v0h168v0v354q0 15 -11 26t-26 11zM624 30h-56v56h56v-56zM624 160h-56v56h56
v-56zM456 627h-19v0v56q0 15 -10.5 26t-26.5 11h-65v84q0 11 -8.5 19.5t-20 8.5t-19.5 -8t-8 -20v-84h-65q-16 0 -27 -11t-11 -26v-56v0h-19q-15 0 -26 -11t-11 -27v-652v0h373v0v652q0 16 -10.5 27t-26.5 11zM270 30h-56v56h56v-56zM270 160h-56v56h56v-56zM270 310h-56v56
h56v-56zM270 459h-56v56h56v-56zM400 30h-56v56h56v-56zM400 160h-56v56h56v-56zM400 310h-56v56h56v-56zM400 459h-56v56h56v-56z" />
    <glyph glyph-name="jiaohuan" unicode="&#xe676;" 
d="M367 716v166q0 8 -17 12q-7 2 -14 0.5t-11 -4.5l-3 -2q-3 -2 -76 -54t-144.5 -102.5l-71.5 -50.5l-7.5 -5t-12 -13.5t-7.5 -23.5q0 -11 5 -20.5t9.5 -13t5.5 -3.5l292 -202q2 0 5.5 -1t13 -2.5t16.5 0.5q7 1 11.5 5t4.5 8l1 3v155h285q9 -1 24 -3.5t54 -12.5t68.5 -22
t54 -32t24.5 -44q-1 6 -1.5 15t-5.5 36.5t-13 52t-25.5 55t-41 52t-61.5 36.5t-84 15h-278zM658 50v-165q3 -10 21 -12q13 -2 23 6q3 2 76 53.5t144.5 102.5l71.5 51l7.5 5t12 13.5t7.5 22.5q0 13 -5 22t-10 13l-5 3l-293 202q-1 0 -3.5 1t-10.5 2.5t-15 -0.5q-9 -3 -14 -7
t-6 -6l-1 -3v-155h-287q-9 1 -24 3.5t-54 12.5t-68.5 22t-54 32t-24.5 44q1 -6 1.5 -15.5t5.5 -36.5t13 -52t25.5 -55t41 -51.5t61.5 -36.5t85 -15z" />
    <glyph glyph-name="resource" unicode="&#xe61b;" 
d="M554 387q0 -27 -17.5 -45t-42.5 -18h-372q-25 0 -42.5 18t-17.5 45v384q0 27 17.5 45t42.5 18h372q25 0 42.5 -18t17.5 -45v-384zM962 381q0 -27 -17.5 -45t-42.5 -18h-192q-25 0 -42.5 18t-17.5 45v201q0 27 17.5 45t42.5 18h192q25 0 42.5 -18t17.5 -45v-201zM551 -3
q0 -27 -17.5 -45t-42.5 -18h-192q-25 0 -42.5 18t-17.5 45v201q0 27 17.5 45t42.5 18h192q25 0 42.5 -18t17.5 -45v-201zM959 -3q0 -27 -17.5 -45t-42.5 -18h-192q-25 0 -42.5 18t-17.5 45v201q0 27 17.5 45t42.5 18h192q25 0 42.5 -18t17.5 -45v-201z" />
    <glyph glyph-name="zhiduyubiaozhun-" unicode="&#xe660;" 
d="M118 37q0 -47 33 -80t80 -33h607q47 0 80 33t33 80v694q0 48 -33 81t-80 33h-604q-48 0 -81 -33t-33 -81v-82h-30q-6 0 -11.5 -5t-5.5 -12v-51q0 -7 5.5 -12t11.5 -5h30v-64h-30q-6 0 -11.5 -5t-5.5 -12v-51q0 -6 5.5 -11.5t11.5 -5.5h30v-62h-30q-6 0 -11.5 -5t-5.5 -12
v-53q0 -6 5.5 -11.5t11.5 -5.5h30v-64h-30q-6 0 -11.5 -5t-5.5 -12v-50q0 -7 5.5 -12.5t11.5 -5.5h30v-54l-2 -26v0v0zM219 204h-40v65h40q7 0 12 5t5 12v50q0 7 -5 12t-12 5h-40v65h40q7 0 12 5t5 12v50q0 7 -5 12t-12 5h-40v64h40q7 0 12 5.5t5 12.5v50q0 7 -5 12t-12 5
h-40v84q0 23 15.5 39t39.5 16h606q23 0 39 -16t16 -39v-694q0 -24 -16 -39.5t-39 -15.5h-606q-24 0 -39.5 15.5t-15.5 39.5v80h40q7 0 12 5t5 12v47q0 8 -5 13.5t-12 5.5zM376 478h378q19 0 32.5 13.5t13.5 32.5v138q0 18 -13.5 31.5t-32.5 13.5h-378q-19 0 -32.5 -13.5
t-13.5 -31.5v-137q0 -19 13.5 -33t32.5 -14zM642 317q0 -10 -6.5 -16.5t-16.5 -6.5v0h-265q-10 0 -16.5 6.5t-6.5 16.5v0v25v0q0 10 6.5 16.5t16.5 6.5v0h265v0q10 0 16.5 -6.5t6.5 -16.5v0v-25zM764 154q0 -10 -7 -16.5t-17 -6.5h-386q-10 0 -16.5 6.5t-6.5 16.5v0v23
q0 10 6.5 16.5t16.5 6.5v0h386q10 0 17 -6.5t7 -16.5v0v-23z" />
    <glyph glyph-name="jiaofei" unicode="&#xe63d;" 
d="M950 82h-219q-7 0 -13 -3l-206 -123h-309q-22 0 -37 15.5t-15 36.5v19q0 22 15 37.5t37 15.5h151q4 -17 16 -29l6 -7q18 -18 44 -18q25 0 42 17l173 132q8 6 9.5 16.5t-5 18.5t-17 9.5t-18.5 -4.5l-174 -133l-2 -2q-8 -8 -16 0l-6 6q-4 4 -4 8.5t4 7.5l272 267h272
q10 0 17.5 7.5t7.5 18t-7.5 18t-17.5 7.5h-91q2 23 2 42q0 111 -54.5 204.5t-148 148t-204 54.5t-204.5 -54.5t-148.5 -148t-54.5 -204.5q0 -65 25.5 -143.5t68.5 -126.5q8 -8 19 -8q10 0 17 6q8 7 8.5 17.5t-6.5 18.5q-36 39 -58.5 109.5t-22.5 126.5q0 97 48 179
t130 129.5t178.5 47.5t178.5 -47.5t130 -129.5t48 -179q0 -19 -3 -42h-139q-8 0 -16 -6q-5 -4 -6 -4l-277 -272q-3 -3 -7 -8h-160q-43 0 -73 -30t-30 -73v-19q0 -42 30 -72.5t73 -30.5h316q7 0 13 4l206 123h212q10 0 17.5 7.5t7.5 18t-7.5 17.5t-17.5 7zM331 431
q-10 0 -17.5 -7t-7.5 -17.5t7.5 -18t17.5 -7.5h92v-64q0 -11 7.5 -18t18 -7t18 7t7.5 18v64h91q11 0 18.5 7.5t7.5 18t-7.5 17.5t-18.5 7h-91v46h91q11 0 18.5 7t7.5 17.5t-7.5 18t-18.5 7.5h-50l44 93q5 9 1.5 19t-13 14.5t-19.5 1t-15 -13.5l-55 -114h-26l-55 114
q-5 10 -15 13.5t-19.5 -1t-13 -14.5t1.5 -20l44 -92h-44q-10 0 -17.5 -7.5t-7.5 -18t7.5 -18t17.5 -7.5h92v-45h-92z" />
    <glyph glyph-name="renkoujihuashengyu" unicode="&#xe65e;" horiz-adv-x="1649" 
d="M1154 580q-49 6 -102 -14t-93.5 -52t-73.5 -65t-51 -57l-17 -23l-9 8l-156 130q21 29 51 59.5t50 46.5l20 16q29 27 64 42t65.5 17t56.5 0.5t41 -6.5l16 -4q37 -7 65 -7t37 4l10 3q-26 9 -64.5 29t-65.5 37l-26 16q-81 25 -147 22.5t-116 -24t-83.5 -46.5t-51.5 -46
l-17 -20q-86 -131 -166.5 -224.5t-130.5 -133.5t-94 -60.5t-56.5 -21.5t-19.5 0v0q90 -30 167.5 -17t140.5 48t108 77t69.5 71.5t24.5 32.5l156 -139q-35 -56 -83 -107t-92.5 -83.5t-84 -57t-62.5 -35.5l-24 -10q73 -3 145 19t123 54.5t92 66.5t61 56t20 24l173 -106
q59 -24 111 -34t90.5 -7t71 14t55 27.5t40 36.5t28 39t17 35.5t9 25t2.5 9.5q4 56 -3.5 103t-23.5 79.5t-38 58.5t-47 41.5t-51 27t-49.5 16t-41.5 7t-29 2.5zM1163 189l-33 5.5t-81 24t-113 51.5v12q6 7 16 18t37 40.5t50.5 52.5t49 42.5t39.5 21.5l10 2.5t25 2.5
t36.5 -0.5t40 -9.5t40 -22t32 -41t21.5 -64q0 -3 0.5 -8t-1.5 -19.5t-6.5 -28t-16.5 -29.5t-29.5 -27t-48 -18t-68.5 -6z" />
    <glyph glyph-name="falv" unicode="&#xe617;" 
d="M630 331h-1q0 -74 53 -126.5t127.5 -52.5t127 52.5t52.5 126.5v0q0 9 -3 16l-125 348q8 12 8 25q0 19 -13.5 32t-31.5 13h-225q-6 32 -31 53.5t-58 21.5t-58 -21t-31 -54h-225q-19 0 -32 -13t-13 -32q0 -13 7 -24l-125 -349q-2 -8 -2 -15v0q0 -75 52.5 -127.5t127 -52.5
t127 52.5t52.5 127.5v0q0 8 -3 15l-117 329h195v-659h-223q-38 0 -65 -26.5t-27 -63.5h719q0 37 -27 63.5t-65 26.5h-222v659h195l-118 -329q-2 -8 -2 -16zM724 331l85 238l85 -238h-170zM125 331l85 238l85 -238h-170z" />
    <glyph glyph-name="zhibananpai" unicode="&#xe873;" 
d="M602 832h-60v-149h60v149zM721 832h-60v-149h60v149zM363 832h-60v-149h60v149zM482 832h-60v-149h60v149zM239 832h-56v-149h60zM900 772v-119h-776v119l-60 -68v-704l62 -64h772l62 64v704zM900 -4h-776v597h776v-597v0zM840 832h-59v-149h59v149zM499 93l-12 20l27 47
l-1 1l-21 21q-10 10 0 21h64q10 -11 0 -21l-22 -21v-1l28 -47l-9 -20q69 4 115.5 25t46.5 49q0 40 -32 55.5t-94 17.5q-17 27 -16 48q41 26 54 81q4 -3 9 -3q6 0 10 4.5t4 10.5v30q0 6 -4 10.5t-10 4.5q-3 0 -5 -1q-5 52 -34 86.5t-69 34.5q-39 0 -68.5 -34.5t-33.5 -85.5
q-6 0 -10.5 -4.5t-4.5 -10.5v-30q0 -6 4.5 -10.5t10.5 -4.5q1 0 4 1q12 -46 42 -71q6 -24 -14 -56q-59 -4 -89.5 -19.5t-30.5 -54.5q0 -27 46 -48t115 -25z" />
    <glyph glyph-name="-suqiantiaojie" unicode="&#xe60c;" 
d="M464 209h-19v0q-14 0 -23.5 -9.5t-9.5 -22.5v0v-167h85v167q0 13 -9.5 22.5t-23.5 9.5v0zM579 209h-19v0q-14 0 -23.5 -9.5t-9.5 -22.5v0v-167h85v167v0q0 13 -9.5 22.5t-23.5 9.5v0zM905.5 523q32.5 0 55.5 23t23 55.5t-23 55.5t-56 23q-32 0 -55 -23t-23 -55.5
t23 -55.5t55.5 -23zM671 81v-71h85v43l204 83q24 7 24 31v0v293q0 14 -10 23.5t-23 9.5h-91v0q-14 0 -23.5 -9.5t-9.5 -23.5v-283l-135 -66q-21 -8 -21 -30v0zM512 602q32 0 55 22.5t23 55t-23 55.5t-55 23t-55 -23t-23 -55.5t23 -55t55 -22.5zM63 136l205 -83v-43h85v71
q0 22 -21 30l-135 66v283q0 14 -9.5 23.5t-23.5 9.5h-91q-14 0 -23.5 -9.5t-9.5 -23.5v-293q0 -11 6.5 -19.5t16.5 -11.5v0zM276 252h472q12 0 19.5 8.5t7.5 19.5t-7.5 19t-19.5 9h-129v225q0 13 -9.5 22.5t-23.5 9.5v0h-148q-14 0 -23.5 -9.5t-9.5 -22.5v0v-225h-129
q-11 -1 -19 -9t-8 -19t8 -19.5t19 -8.5v0zM118.5 523q32.5 0 55.5 23t23 55.5t-23 55.5t-56 23q-32 0 -55 -23t-23 -56q0 -32 23 -55t55.5 -23z" />
    <glyph glyph-name="xiaofang" unicode="&#xe632;" 
d="M502 482q15 0 26 11t11 26.5t-11 26.5t-26 11t-26 -11t-11 -26.5t11 -26.5t26 -11zM385 667h240v0.5t1 0.5q6 0 6 16q0 40 -22 73t-58 47v3q0 19 -13.5 32.5t-31.5 13.5h-1h-0.5h-0.5q-18 0 -30.5 -13.5t-12.5 -32.5v-2q-38 -14 -61 -47.5t-23 -74.5q0 -16 7 -16z
M724 436q33 0 56.5 23t23.5 56t-23.5 56.5t-56.5 23.5q-13 0 -13 -8v-144q0 -7 13 -7zM293 436q8 0 8 7q1 2 -1 4v138q1 2 0 4q-1 6 -8 6q-32 0 -53 -23t-21 -57q0 -33 22 -56t53 -23zM502 584q26 0 44.5 -18.5t18.5 -45.5t-18.5 -45.5t-44.5 -18.5t-45 18.5t-19 45.5
t19 45.5t45 18.5zM761 3h-124v431h11v-19q0 -8 8 -8h26q7 0 7 8v198q0 7 -7 7h-26q-8 0 -8 -7v-19h-11v45q0 7 -7 7h-248q-7 0 -7 -7v-45h-12v19q0 7 -7 7h-26q-8 0 -8 -7v-198q0 -8 8 -8h26q7 0 7 8v19h12v-431h-97q-18 0 -30.5 -13t-12.5 -31t12.5 -30.5t30.5 -12.5h483
q17 0 30 12.5t13 30.5t-13 31t-30 13v0z" />
    <glyph glyph-name="xiazai" unicode="&#xe654;" 
d="M525 302l246 231q3 3 1.5 6.5t-5.5 3.5h-159v236q0 7 -5 12t-12 5v0h-155q-8 0 -13 -5t-5 -12v0v-236h-159q-4 0 -5.5 -3.5t1.5 -6.5l246 -231q5 -5 12 -5t12 5zM981 223l-152 106h-95l159 -129l-175 2q-9 0 -14 -9l-49 -117h-284l-49 117q-5 9 -14 9h-174l158 127h-95
l-152 -106q-17 -10 -26.5 -31.5t-4.5 -40.5l28 -155q5 -19 23.5 -32.5t39.5 -13.5h816q22 0 40 13.5t23 32.5l28 155q5 19 -4.5 40.5t-26.5 31.5z" />
    <glyph glyph-name="wangluotuiguang" unicode="&#xe62a;" 
d="M761 530q-63 14 -98.5 68t-21.5 117q13 63 67 98.5t117 22.5q23 -5 45 -17q7 -4 9 -11.5t-2 -14.5t-11.5 -9t-14.5 2q-15 8 -34 13q-48 10 -89 -17t-51 -75t17 -89t74 -51q48 -10 89 17t51 75q3 12 3 21q0 8 6 13.5t13 4.5q8 0 13.5 -5.5t4.5 -13.5q0 -12 -3 -28
q-13 -63 -67 -98.5t-117 -22.5zM231 227q-65 0 -110.5 46t-45.5 110t45.5 110t110 46t110.5 -46t46 -110t-45.5 -110t-110.5 -46zM231 502q-49 0 -84 -35t-35 -84t35 -84t84 -35t83.5 35t34.5 84t-34.5 84t-83.5 35zM793.5 -73q-64.5 0 -110.5 46t-46 110t46 110t110.5 46
t110 -46t45.5 -110t-45.5 -110t-110 -46zM793 202q-49 0 -83.5 -35t-34.5 -83q0 -49 35 -84t83.5 -35t83.5 35t35 84q-1 48 -35.5 83t-83.5 35zM691 607zM361 430l-17 34l327 173l16 -35zM346 304zM664 110l-326 177l18 34l325 -177zM793 -84q-69 0 -118 49t-49 119
q0 17 4 32l-279 151q-49 -51 -120 -51q-69 0 -118 49t-49 118t49 118t118 49q39 0 73.5 -17t58.5 -47l272 144q-15 43 -5 88q12 57 58 95t105 38q14 0 34 -4q26 -5 48 -18q11 -6 14.5 -18t-2.5 -23q-6 -10 -18 -13.5t-23 2.5q-14 8 -31 11q-12 3 -22 3q-37 0 -67 -24.5
t-38 -61.5q-9 -44 16 -81q24 -37 67 -46q12 -2 22 -2q38 0 67.5 24t37.5 61q2 7 3 20q0 12 9 20.5t21 8.5q13 0 21 -9q9 -10 8 -21q0 -17 -3 -31q-12 -57 -58.5 -95t-105.5 -38q-14 0 -34 4q-58 12 -95 57l-274 -144q8 -25 8 -49q0 -34 -14 -67l268 -145q23 37 60.5 58
t80.5 21q69 0 118 -49t49 -118.5t-49 -118.5t-118 -49zM793.5 191q-44.5 0 -76 -31.5t-31.5 -76t31.5 -76t76 -31.5t76 31t31.5 76q-1 45 -32 76.5t-75.5 31.5zM231 491q-45 0 -76.5 -31.5t-31.5 -76t31.5 -76t76 -31.5t76 31t31.5 76t-31.5 76.5t-75.5 31.5z" />
    <glyph glyph-name="duihuan" unicode="&#xe61c;" 
d="M441 613q-6 0 -14 -6q-13 -11 -11 -21q4 -27 74 -62q-10 37 -23 63t-26 26zM362 398h120v-197h-120v197zM341 474h141v-56h-141v56zM601 570q0 5 -7 10q-7 6 -12 6q-9 0 -18.5 -18t-16.5 -45q52 29 54 47zM512 862q-97 0 -185.5 -38t-152.5 -102t-102 -152.5t-38 -185.5
t38 -185.5t102 -152.5t152.5 -102t185.5 -38t185.5 38t152.5 102t102 152.5t38 185.5t-38 185.5t-102 152.5t-152.5 102t-185.5 38zM716 400q0 -7 -4.5 -12t-11.5 -5h-5v-199q0 -6 -5 -11t-11 -5h-334q-6 0 -11 5t-5 11v199h-5q-7 0 -11.5 5t-4.5 12v91q0 7 4.5 12t11.5 5
h126q-61 36 -67 72q-5 29 23 52q17 15 35 15q49 0 78 -102q21 74 63 74q16 0 32 -12q23 -17 20 -41q-3 -28 -48 -58h114q7 0 11.5 -5t4.5 -12v-91zM544 398h118v-197h-118v197zM544 474h139v-56h-139v56z" />
    <glyph glyph-name="renyuanguanli" unicode="&#xe69d;" 
d="M775 363q-73 -49 -161 -49q-87 0 -160 49q-95 -47 -153 -138.5t-58 -202.5q0 -45 76.5 -76t186 -37.5t218.5 0.5t185.5 38t76.5 75q0 111 -58 203t-153 138zM364 610q0 105 73.5 179.5t177 74.5t176.5 -74.5t73 -179.5t-73 -179.5t-176.5 -74.5t-177 74.5t-73.5 179.5z
M199 9q0 -8 3 -17q-75 12 -119.5 35t-44.5 56q0 96 50 175t132 120q59 -40 131 -43q-71 -59 -111.5 -144t-40.5 -182v0zM323 610q0 96 54 173q-8 1 -18 1q-85 0 -145 -61.5t-60 -148t60 -148t145 -61.5q38 0 73 14q-51 41 -80 101.5t-29 129.5zM323 610z" />
    <glyph glyph-name="old" unicode="&#xe61a;" 
d="M896 702q-5 20 -33.5 33.5t-48.5 13.5h-4l-34 37l-5 5q-26 26 -46 37q-10 6 -31 6q-50 0 -130 -22q-92 -25 -113 -55q-12 -19 -20 -50l-14 -61q-16 -8 -33 -31q-23 -30 -17 -52q3 -12 15 -28l-5 -4q-22 -9 -37 -27q-46 -24 -93.5 -77.5t-83.5 -123.5q-73 -142 -73 -283
q0 -11 -1 -21q-2 -25 1 -42l1 -21l518 -2l4 184q21 -23 52 -23v0q40 0 63 36l11 -2l-2 -193h124v228v2q0 49 -35 83q-36 36 -87 36h-1q-13 0 -32 -3l-149 152q37 -18 79 -18h1q75 0 129 52t54 126q0 6 -1 18t-1 17l42 11q23 6 34 28q4 7 4 21q0 7 -2 13v0z" />
    <glyph glyph-name="zhiyuanzheshenqing" unicode="&#xe61d;" 
d="M712 166q-7 2 -11.5 14t-5.5 24v12q5 5 14 15t25.5 40.5t21.5 59.5q14 0 24 18.5t9 41.5t-15 35q0 1 1.5 16t2 27.5t-1 32.5t-6 36t-15.5 34.5t-27 30.5t-42 20t-59.5 8t-59.5 -8t-42 -20t-26.5 -30.5t-15 -34.5t-6.5 -36t-1 -32.5t2 -27.5t2 -16q-14 -12 -15.5 -35
t8.5 -41.5t25 -18.5q5 -29 20 -58t28 -43l13 -14q-1 -47 -18 -50q-23 -3 -64 -20.5t-86 -43.5t-77.5 -62t-32.5 -70h691q0 34 -32.5 70t-77 62t-86 43.5t-64.5 20.5zM360 151q62 38 128 60q-28 39 -40 81q-22 17 -33 47q-11 31 -7 63q2 22 12 40q-11 120 47 185q32 35 79 50
q-12 127 -150 127q-33 0 -59 -8t-42 -20.5t-27 -30.5t-15.5 -34t-6 -36.5t-1 -32.5t2 -27t1.5 -16q-14 -12 -15 -35t9 -41.5t24 -18.5q5 -30 20.5 -58.5t27.5 -42.5l13 -14q0 -47 -17 -50q-23 -3 -64.5 -20.5t-86 -43.5t-77 -62t-32.5 -70h296q88 58 193 80zM360 151z" />
    <glyph glyph-name="jinseniudai" unicode="&#xe69f;" 
d="M261 272q8 -7 31.5 -30.5t35 -34t32.5 -26.5t42 -24.5t45 -13.5q-20 63 -22 68q-6 21 -8.5 32t0 29t13.5 32q3 4 -6 21t-24.5 47.5t-28 55.5t-22.5 48q-25 55 -13 118q11 52 50 86t96 40q112 10 167 -82q4 -8 8 -17.5t8 -22t6 -19.5q62 25 65 26q49 16 97.5 -1t77 -59.5
t24.5 -94.5q-5 -68 -78 -117q-9 -6 -18 -11t-16.5 -9t-19 -8.5t-17.5 -7t-19.5 -7l-18 -6t-19.5 -5.5t-18 -4.5t-20 -5t-19 -4.5q-46 -11 -82 -31q-6 -4 -11.5 -10.5t-11.5 -16t-10 -13.5q0 -1 -19 -25q-3 3 -10 8t-12 9t-8 9q-8 11 -19 33.5t-15 28.5q0 1 -16 22
q-8 -5 -9 -5q19 -67 21 -71q6 -20 8 -30t-1.5 -25t-16.5 -27q-19 -17 -38 -10q-9 4 -94 41l-2 -2q-12 -37 -23 -45.5t-49 -10.5q-111 -4 -206 52q-17 10 -21 24.5t2 39.5q85 -48 90 -51q78 -39 152 -31q2 0 31 11q-11 24 -12 25q-15 22 -38 51q-18 22 -16.5 30.5t25.5 26.5z
M641 456q-3 13 -3 14q-24 83 -67 118q-53 42 -106 19q-24 -10 -32 -30.5t-10 -51.5q-3 -58 34 -141q2 -6 13.5 -27t14.5 -33q3 -11 10 -17t21 -12v40q0 1 8 19q8 -17 8 -18v-61q4 0 8 -1q5 22 5 24q0 6 -0.5 18t-0.5 16q0 16 1 43.5t1 38.5l1 -2q0 -5 0.5 -5t0.5 3h3.5h4.5
q1 -1 1 -7q0 -7 3 -40q1 -9 3.5 -18t6.5 -21.5t5 -17.5q0 -1 2 -2q3 0 7.5 0.5t5.5 1.5q2 6 5 18t4 17q3 1 7 1q22 -39 27 -48v93q1 0 7 -1v-74h4q2 6 13 32h8q6 -13 17 -36q1 15 3 30h1h2q1 -20 2 -28h4l21 52q2 -3 7.5 -11.5t7.5 -13.5q2 1 6 1v76h10q1 -16 2.5 -48
t2.5 -48q4 0 7 -1q7 50 45 75q0 -6 1 -18t1 -19q3 1 8.5 1.5t9.5 1t6 2.5q20 13 28 46t-2 56q-14 31 -47.5 43t-72.5 -2q-14 -5 -29.5 -12.5t-35 -18.5t-29.5 -16zM339 686q-19 -30 -26.5 -62.5t-7.5 -58t9.5 -61t17 -56.5t23.5 -60q-64 85 -70 165.5t54 132.5zM883 609
q31 -7 54.5 -30t34 -53t7 -64t-22.5 -61q6 29 8.5 41.5t2.5 35t-6 41.5q-21 58 -78 90zM659 659q-31 41 -59.5 61t-67.5 20q32 16 72.5 -11.5t54.5 -69.5zM524 570.5q-3 11.5 -11 17.5t-15 6l-6 1q15 -8 20 -18t2 -16l-3 -7l-20 20l8 9l-6 5l-4 -4h-7l-16 -16l9 -9l6 6
l21 -19q-9 -5 -16.5 -3.5t-12.5 5.5l-4 5l-6 -6l4 -5v-1l-4 -1q-2 -3 -1.5 -4.5t1.5 -2.5l2 -1l6 5l1 2q10 -6 19.5 -6.5t13.5 2.5l4 2l7 -6l9 9l-6 7v0q8 12 5 23.5zM524 571zM450 549q-8 -41 -1 -80t36 -66q-34 11 -44.5 59.5t9.5 86.5zM537 403q0 -6 4.5 -11t11.5 -5
t11.5 5t4.5 11v0q0 7 -4.5 12t-11.5 5t-11.5 -5t-4.5 -12v0zM546 454v0q0 -7 7 -7t7 7v0v0q0 7 -7 7t-7 -7v0zM553 476l-3 -70h7z" />
  </font>
</defs>
</svg>
